<svg width="1232" height="135" xmlns="http://www.w3.org/2000/svg" xmlns:xlink="http://www.w3.org/1999/xlink" overflow="hidden"><defs><clipPath id="clip0"><rect x="14" y="405" width="1232" height="135"/></clipPath></defs><g clip-path="url(#clip0)" transform="translate(-14 -405)"><text font-family="Segoe UI Light,Segoe UI Light_MSFontService,sans-serif" font-weight="300" font-size="24" transform="translate(95.2125 436)">Create application image<tspan font-size="24" x="428.121" y="0">Push image</tspan><tspan font-size="24" x="674.427" y="0">Pull image</tspan><tspan font-weight="700" font-size="24" x="909.371" y="0">Run application</tspan><tspan font-size="16" x="-69.699" y="71">Create </tspan><tspan font-size="16" x="-21.6857" y="71">Dockerfile</tspan><tspan font-size="16" x="95.273" y="71">Create </tspan><tspan font-size="16" x="143.286" y="71">AppDef.</tspan><tspan font-size="16" x="196.413" y="71">json</tspan><tspan font-size="16" x="273.787" y="71">Finalize</tspan><tspan fill="#A6A6A6" font-style="italic" font-weight="700" font-size="16" x="369.401" y="71">Register to registry</tspan><tspan font-size="16" x="537.038" y="71">Push image</tspan><tspan font-size="16" x="659.482" y="71">Pull image with Push </tspan><tspan font-size="16" x="687.902" y="90">to Compute</tspan><tspan font-weight="700" font-size="16" x="843.6" y="71">Run application in </tspan><tspan font-weight="700" font-size="16" x="967.433" y="71">Jarvice</tspan><tspan fill="#A6A6A6" font-size="16" x="1060.4" y="71">Gather logs</tspan></text><path d="M151.5 501.167 167.944 501.167 167.944 501.833 151.5 501.833ZM166.611 497.5 174.611 501.5 166.611 505.5Z" fill="#4472C4"/><path d="M0.0032903-0.333317 16.4478-0.170987 16.4412 0.495647-0.0032903 0.333317ZM15.1507-3.85064 23.1109 0.228136 15.0718 4.14897Z" fill="#4472C4" transform="matrix(1 0 0 -1 335.5 500.728)"/><path d="M0.00155809-0.33333 16.4467-0.25646 16.4436 0.410199-0.00155809 0.33333ZM15.1305-3.92932 23.1117 0.108031 15.0931 4.07059Z" fill="#4472C4" transform="matrix(1 0 0 -1 429.5 500.608)"/><path d="M599.5 500.167 615.945 500.167 615.945 500.833 599.5 500.833ZM614.611 496.5 622.611 500.5 614.611 504.5Z" fill="#4472C4"/><path d="M1.35756e-06-0.333333 19.1117-0.333255 19.1117 0.333411-1.35756e-06 0.333333ZM17.7784-3.99993 25.7784 0.000104987 17.7784 4.00007Z" fill="#4472C4" transform="matrix(1 0 0 -1 720.5 500.5)"/><path d="M904.5 500.167 920.944 500.167 920.944 500.833 904.5 500.833ZM919.611 496.5 927.611 500.5 919.611 504.5Z" fill="#4472C4"/><path d="M1119.5 500.167 1135.94 500.167 1135.94 500.833 1119.5 500.833ZM1134.61 496.5 1142.61 500.5 1134.61 504.5Z" fill="#B4C7E7"/><path d="M23.5 483.5C23.5 475.216 32.8725 468.5 44.4341 468.5L200.066 468.5C211.628 468.5 221 461.784 221 453.5 221 461.784 230.372 468.5 241.934 468.5L397.566 468.5C409.128 468.5 418.5 475.216 418.5 483.5" stroke="#4472C4" stroke-width="0.666667" stroke-miterlimit="8" fill="none" fill-rule="evenodd"/><path d="M452.5 483.5C452.5 475.216 461.872 468.5 473.434 468.5L561.066 468.5C572.628 468.5 582 461.784 582 453.5 582 461.784 591.372 468.5 602.934 468.5L690.566 468.5C702.128 468.5 711.5 475.216 711.5 483.5" stroke="#4472C4" stroke-width="0.666667" stroke-miterlimit="8" fill="none" fill-rule="evenodd"/><path d="M751.5 483.5C751.5 475.216 760.872 468.5 772.434 468.5L801.066 468.5C812.628 468.5 822 461.784 822 453.5 822 461.784 831.372 468.5 842.934 468.5L871.566 468.5C883.128 468.5 892.5 475.216 892.5 483.5" stroke="#4472C4" stroke-width="0.666667" stroke-miterlimit="8" fill="none" fill-rule="evenodd"/><path d="M933.5 483.5C933.5 475.216 942.872 468.5 954.434 468.5L1062.07 468.5C1073.63 468.5 1083 461.784 1083 453.5 1083 461.784 1092.37 468.5 1103.93 468.5L1211.57 468.5C1223.13 468.5 1232.5 475.216 1232.5 483.5" stroke="#4472C4" stroke-width="0.666667" stroke-miterlimit="8" fill="none" fill-rule="evenodd"/></g></svg>