<svg width="1232" height="134" xmlns="http://www.w3.org/2000/svg" xmlns:xlink="http://www.w3.org/1999/xlink" overflow="hidden"><defs><clipPath id="clip0"><rect x="27" y="379" width="1232" height="134"/></clipPath></defs><g clip-path="url(#clip0)" transform="translate(-27 -379)"><text font-family="Segoe UI Light,Segoe UI Light_MSFontService,sans-serif" font-weight="700" font-size="24" transform="translate(107.962 410)">Create application image<tspan fill="#A6A6A6" font-weight="300" font-size="24" x="428.371" y="0">Push image</tspan><tspan fill="#A6A6A6" font-weight="300" font-size="24" x="674.676" y="0">Pull image</tspan><tspan fill="#A6A6A6" font-weight="300" font-size="24" x="909.704" y="0">Run application</tspan><tspan font-weight="300" font-size="16" x="-69.449" y="70">Create </tspan><tspan font-weight="300" font-size="16" x="-21.4357" y="70">Dockerfile</tspan><tspan font-size="16" x="95.1897" y="70">Create </tspan><tspan font-size="16" x="143.536" y="70">AppDef.</tspan><tspan font-size="16" x="196.996" y="70">json</tspan><tspan fill="#A6A6A6" font-weight="300" font-size="16" x="274.037" y="70">Finalize</tspan><tspan fill="#A6A6A6" font-style="italic" font-weight="300" font-size="16" x="369.651" y="70">Register to registry</tspan><tspan fill="#A6A6A6" font-weight="300" font-size="16" x="537.288" y="70">Push image</tspan><tspan fill="#A6A6A6" font-weight="300" font-size="16" x="659.732" y="70">Pull image with Push </tspan><tspan fill="#A6A6A6" font-weight="300" font-size="16" x="688.152" y="89">to Compute</tspan><tspan fill="#A6A6A6" font-weight="300" font-size="16" x="843.933" y="70">Run application in </tspan><tspan fill="#A6A6A6" font-weight="300" font-size="16" x="967.766" y="70">Jarvice</tspan><tspan fill="#A6A6A6" font-weight="300" font-size="16" x="1060.65" y="70">Gather logs</tspan></text><path d="M164.5 474.167 180.944 474.167 180.944 474.833 164.5 474.833ZM179.611 470.5 187.611 474.5 179.611 478.5Z" fill="#4472C4"/><path d="M0.0032903-0.333317 16.4478-0.170987 16.4412 0.495647-0.0032903 0.333317ZM15.1507-3.85064 23.1109 0.228136 15.0718 4.14897Z" fill="#B4C7E7" transform="matrix(1 0 0 -1 348.5 474.728)"/><path d="M0.00155809-0.33333 16.4467-0.25646 16.4436 0.410199-0.00155809 0.33333ZM15.1305-3.92932 23.1117 0.108031 15.0931 4.07059Z" fill="#B4C7E7" transform="matrix(1 0 0 -1 442.5 474.608)"/><path d="M612.5 474.167 628.945 474.167 628.945 474.833 612.5 474.833ZM627.611 470.5 635.611 474.5 627.611 478.5Z" fill="#B4C7E7"/><path d="M1.35756e-06-0.333333 19.1117-0.333255 19.1117 0.333411-1.35756e-06 0.333333ZM17.7784-3.99993 25.7784 0.000104987 17.7784 4.00007Z" fill="#B4C7E7" transform="matrix(1 0 0 -1 733.5 474.5)"/><path d="M917.5 474.167 933.944 474.167 933.944 474.833 917.5 474.833ZM932.611 470.5 940.611 474.5 932.611 478.5Z" fill="#B4C7E7"/><path d="M1132.5 474.167 1148.94 474.167 1148.94 474.833 1132.5 474.833ZM1147.61 470.5 1155.61 474.5 1147.61 478.5Z" fill="#B4C7E7"/><path d="M36.5001 456.5C36.5001 448.492 45.56 442 56.736 442L213.764 442C224.94 442 234 435.508 234 427.5 234 435.508 243.06 442 254.236 442L411.264 442C422.44 442 431.5 448.492 431.5 456.5" stroke="#4472C4" stroke-width="0.666667" stroke-miterlimit="8" fill="none" fill-rule="evenodd"/><path d="M465.5 456.5C465.5 448.492 474.56 442 485.736 442L574.764 442C585.94 442 595 435.508 595 427.5 595 435.508 604.06 442 615.236 442L704.264 442C715.44 442 724.5 448.492 724.5 456.5" stroke="#B4C7E7" stroke-width="0.666667" stroke-miterlimit="8" fill="none" fill-rule="evenodd"/><path d="M764.5 456.5C764.5 448.492 773.56 442 784.736 442L814.764 442C825.94 442 835 435.508 835 427.5 835 435.508 844.06 442 855.236 442L885.264 442C896.44 442 905.5 448.492 905.5 456.5" stroke="#B4C7E7" stroke-width="0.666667" stroke-miterlimit="8" fill="none" fill-rule="evenodd"/><path d="M946.5 456.5C946.5 448.492 955.56 442 966.736 442L1075.76 442C1086.94 442 1096 435.508 1096 427.5 1096 435.508 1105.06 442 1116.24 442L1225.26 442C1236.44 442 1245.5 448.492 1245.5 456.5" stroke="#B4C7E7" stroke-width="0.666667" stroke-miterlimit="8" fill="none" fill-rule="evenodd"/></g></svg>