<svg width="1232" height="134" xmlns="http://www.w3.org/2000/svg" xmlns:xlink="http://www.w3.org/1999/xlink" overflow="hidden"><defs><clipPath id="clip0"><rect x="49" y="15" width="1232" height="134"/></clipPath></defs><g clip-path="url(#clip0)" transform="translate(-49 -15)"><text font-family="Segoe UI Light,Segoe UI Light_MSFontService,sans-serif" font-weight="300" font-size="24" transform="translate(129.546 46)">Create application image<tspan font-weight="700" font-size="24" x="428.038" y="0">Push image</tspan><tspan fill="#A6A6A6" font-size="24" x="674.426" y="0">Pull image</tspan><tspan fill="#A6A6A6" font-size="24" x="909.454" y="0">Run application</tspan><tspan font-size="16" x="-69.699" y="70">Create </tspan><tspan font-size="16" x="-21.6857" y="70">Dockerfile</tspan><tspan font-size="16" x="95.273" y="70">Create </tspan><tspan font-size="16" x="143.286" y="70">AppDef.</tspan><tspan font-size="16" x="196.413" y="70">json</tspan><tspan font-size="16" x="273.787" y="70">Finalize</tspan><tspan fill="#A6A6A6" font-style="italic" font-weight="700" font-size="16" x="369.401" y="70">Register to registry</tspan><tspan fill="#A6A6A6" font-size="16" x="537.038" y="70">Push image</tspan><tspan fill="#A6A6A6" font-size="16" x="659.482" y="70">Pull image with Push </tspan><tspan fill="#A6A6A6" font-size="16" x="687.902" y="89">to Compute</tspan><tspan fill="#A6A6A6" font-size="16" x="843.683" y="70">Run application in </tspan><tspan fill="#A6A6A6" font-size="16" x="967.516" y="70">Jarvice</tspan><tspan fill="#A6A6A6" font-size="16" x="1060.4" y="70">Gather logs</tspan></text><path d="M185.5 110.167 201.944 110.167 201.944 110.833 185.5 110.833ZM200.611 106.5 208.611 110.5 200.611 114.5Z" fill="#4472C4"/><path d="M0.0032903-0.333317 16.4478-0.170987 16.4412 0.495647-0.0032903 0.333317ZM15.1507-3.85064 23.1109 0.228136 15.0718 4.14897Z" fill="#4472C4" transform="matrix(1 0 0 -1 369.5 110.728)"/><path d="M0.00155809-0.33333 16.4467-0.25646 16.4436 0.410199-0.00155809 0.33333ZM15.1305-3.92932 23.1117 0.108031 15.0931 4.07059Z" fill="#4472C4" transform="matrix(1 0 0 -1 464.5 110.608)"/><path d="M633.5 110.167 649.945 110.167 649.945 110.833 633.5 110.833ZM648.611 106.5 656.611 110.5 648.611 114.5Z" fill="#B4C7E7"/><path d="M1.35756e-06-0.333333 19.1117-0.333255 19.1117 0.333411-1.35756e-06 0.333333ZM17.7784-3.99993 25.7784 0.000104987 17.7784 4.00007Z" fill="#B4C7E7" transform="matrix(1 0 0 -1 754.5 110.5)"/><path d="M938.5 110.167 954.944 110.167 954.944 110.833 938.5 110.833ZM953.611 106.5 961.611 110.5 953.611 114.5Z" fill="#B4C7E7"/><path d="M1154.5 110.167 1170.94 110.167 1170.94 110.833 1154.5 110.833ZM1169.61 106.5 1177.61 110.5 1169.61 114.5Z" fill="#B4C7E7"/><path d="M57.5001 92.5001C57.5001 84.4918 66.56 77.9998 77.736 77.9998L234.764 77.9998C245.94 77.9998 255 71.5079 255 63.4996 255 71.5079 264.06 77.9998 275.236 77.9998L432.264 77.9998C443.44 77.9998 452.5 84.4918 452.5 92.5001" stroke="#4472C4" stroke-width="0.666667" stroke-miterlimit="8" fill="none" fill-rule="evenodd"/><path d="M487.5 92.5001C487.5 84.4919 496.56 78 507.736 78L596.264 78C607.44 78 616.5 71.508 616.5 63.4998 616.5 71.508 625.56 78 636.736 78L725.264 78C736.44 78 745.5 84.4919 745.5 92.5001" stroke="#4472C4" stroke-width="0.666667" stroke-miterlimit="8" fill="none" fill-rule="evenodd"/><path d="M786.5 92.5001C786.5 84.4919 795.56 78.0001 806.736 78.0001L836.764 78.0001C847.94 78.0001 857 71.5082 857 63.5001 857 71.5082 866.06 78.0001 877.236 78.0001L907.264 78.0001C918.44 78.0001 927.5 84.4919 927.5 92.5001" stroke="#B4C7E7" stroke-width="0.666667" stroke-miterlimit="8" fill="none" fill-rule="evenodd"/><path d="M967.5 92.5001C967.5 84.4918 976.56 77.9999 987.736 77.9999L1096.76 77.9999C1107.94 77.9999 1117 71.5079 1117 63.4997 1117 71.5079 1126.06 77.9999 1137.24 77.9999L1246.26 77.9999C1257.44 77.9999 1266.5 84.4918 1266.5 92.5001" stroke="#B4C7E7" stroke-width="0.666667" stroke-miterlimit="8" fill="none" fill-rule="evenodd"/></g></svg>