<svg width="1232" height="134" xmlns="http://www.w3.org/2000/svg" xmlns:xlink="http://www.w3.org/1999/xlink" overflow="hidden"><defs><clipPath id="clip0"><rect x="41" y="132" width="1232" height="134"/></clipPath></defs><g clip-path="url(#clip0)" transform="translate(-41 -132)"><text font-family="Segoe UI Light,Segoe UI Light_MSFontService,sans-serif" font-weight="300" font-size="24" transform="translate(121.99 163)">Create application image<tspan font-size="24" x="428.121" y="0">Push image</tspan><tspan font-size="24" x="674.426" y="0">Pull image</tspan><tspan font-size="24" x="909.454" y="0">Run application</tspan><tspan font-size="16" x="-69.699" y="70">Create </tspan><tspan font-size="16" x="-21.6857" y="70">Dockerfile</tspan><tspan font-size="16" x="95.273" y="70">Create </tspan><tspan font-size="16" x="143.286" y="70">AppDef.json</tspan><tspan font-size="16" x="273.787" y="70">Finaliz</tspan><tspan font-size="16" x="315.12" y="70">e</tspan><tspan fill="#7F7F7F" font-style="italic" font-size="16" x="369.401" y="70">Register to registry</tspan><tspan font-size="16" x="537.038" y="70">Push image</tspan><tspan font-size="16" x="659.482" y="70">Pull image with Push </tspan><tspan font-size="16" x="687.902" y="89">to Compute</tspan><tspan font-size="16" x="843.683" y="70">Run application in </tspan><tspan font-size="16" x="967.516" y="70">Jarvice</tspan><tspan font-size="16" x="1060.4" y="70">Gather logs</tspan></text><path d="M178.5 227.167 194.944 227.167 194.944 227.833 178.5 227.833ZM193.611 223.5 201.611 227.5 193.611 231.5Z" fill="#4472C4"/><path d="M0.0032903-0.333317 16.4478-0.170987 16.4412 0.495647-0.0032903 0.333317ZM15.1507-3.85064 23.1109 0.228136 15.0718 4.14897Z" fill="#4472C4" transform="matrix(1 0 0 -1 362.5 227.728)"/><path d="M0.00155809-0.33333 16.4467-0.25646 16.4436 0.410199-0.00155809 0.33333ZM15.1305-3.92932 23.1117 0.108031 15.0931 4.07059Z" fill="#4472C4" transform="matrix(1 0 0 -1 456.5 227.608)"/><path d="M626.5 227.167 642.945 227.167 642.945 227.833 626.5 227.833ZM641.611 223.5 649.611 227.5 641.611 231.5Z" fill="#4472C4"/><path d="M1.35756e-06-0.333333 19.1117-0.333255 19.1117 0.333411-1.35756e-06 0.333333ZM17.7784-3.99993 25.7784 0.000104987 17.7784 4.00007Z" fill="#4472C4" transform="matrix(1 0 0 -1 747.5 227.5)"/><path d="M931.5 227.167 947.944 227.167 947.944 227.833 931.5 227.833ZM946.611 223.5 954.611 227.5 946.611 231.5Z" fill="#4472C4"/><path d="M1146.5 227.167 1162.94 227.167 1162.94 227.833 1146.5 227.833ZM1161.61 223.5 1169.61 227.5 1161.61 231.5Z" fill="#4472C4"/><path d="M50.5001 209.5C50.5001 201.492 59.56 195 70.736 195L227.764 195C238.94 195 248 188.508 248 180.5 248 188.508 257.06 195 268.236 195L425.264 195C436.44 195 445.5 201.492 445.5 209.5" stroke="#4472C4" stroke-width="0.666667" stroke-miterlimit="8" fill="none" fill-rule="evenodd"/><path d="M479.5 209.5C479.5 201.492 488.56 195 499.736 195L588.764 195C599.94 195 609 188.508 609 180.5 609 188.508 618.06 195 629.236 195L718.264 195C729.44 195 738.5 201.492 738.5 209.5" stroke="#4472C4" stroke-width="0.666667" stroke-miterlimit="8" fill="none" fill-rule="evenodd"/><path d="M778.5 209.5C778.5 201.492 787.56 195 798.736 195L828.764 195C839.94 195 849 188.508 849 180.5 849 188.508 858.06 195 869.236 195L899.264 195C910.44 195 919.5 201.492 919.5 209.5" stroke="#4472C4" stroke-width="0.666667" stroke-miterlimit="8" fill="none" fill-rule="evenodd"/><path d="M960.5 209.5C960.5 201.492 969.56 195 980.736 195L1089.76 195C1100.94 195 1110 188.508 1110 180.5 1110 188.508 1119.06 195 1130.24 195L1239.26 195C1250.44 195 1259.5 201.492 1259.5 209.5" stroke="#4472C4" stroke-width="0.666667" stroke-miterlimit="8" fill="none" fill-rule="evenodd"/></g></svg>