<svg width="1232" height="134" xmlns="http://www.w3.org/2000/svg" xmlns:xlink="http://www.w3.org/1999/xlink" overflow="hidden"><defs><clipPath id="clip0"><rect x="32" y="144" width="1232" height="134"/></clipPath></defs><g clip-path="url(#clip0)" transform="translate(-32 -144)"><text font-family="Segoe UI Light,Segoe UI Light_MSFontService,sans-serif" font-weight="300" font-size="24" transform="translate(112.546 175)">Create application image<tspan font-weight="700" font-size="24" x="428.038" y="0">Push image</tspan><tspan fill="#A6A6A6" font-size="24" x="674.426" y="0">Pull image</tspan><tspan fill="#A6A6A6" font-size="24" x="909.454" y="0">Run application</tspan><tspan font-size="16" x="-69.699" y="71">Create </tspan><tspan font-size="16" x="-21.6857" y="71">Dockerfile</tspan><tspan font-size="16" x="95.273" y="71">Create </tspan><tspan font-size="16" x="143.286" y="71">AppDef.</tspan><tspan font-size="16" x="196.413" y="71">json</tspan><tspan font-size="16" x="273.787" y="70">Finalize</tspan><tspan fill="#A6A6A6" font-style="italic" font-weight="700" font-size="16" x="369.401" y="70">Register to registry</tspan><tspan font-weight="700" font-size="16" x="536.954" y="70">Push image</tspan><tspan fill="#A6A6A6" font-size="16" x="659.482" y="70">Pull image with Push </tspan><tspan fill="#A6A6A6" font-size="16" x="687.902" y="89">to Compute</tspan><tspan fill="#A6A6A6" font-size="16" x="843.683" y="70">Run application in </tspan><tspan fill="#A6A6A6" font-size="16" x="967.517" y="70">Jarvice</tspan><tspan fill="#A6A6A6" font-size="16" x="1060.4" y="70">Gather logs</tspan></text><path d="M168.5 239.167 184.944 239.167 184.944 239.833 168.5 239.833ZM183.611 235.5 191.611 239.5 183.611 243.5Z" fill="#4472C4"/><path d="M0.0032903-0.333317 16.4478-0.170987 16.4412 0.495647-0.0032903 0.333317ZM15.1507-3.85064 23.1109 0.228136 15.0718 4.14897Z" fill="#4472C4" transform="matrix(1 0 0 -1 352.5 239.728)"/><path d="M0.00155809-0.33333 16.4467-0.25646 16.4436 0.410199-0.00155809 0.33333ZM15.1305-3.92932 23.1117 0.108031 15.0931 4.07059Z" fill="#4472C4" transform="matrix(1 0 0 -1 447.5 239.608)"/><path d="M616.5 239.167 632.945 239.167 632.945 239.833 616.5 239.833ZM631.611 235.5 639.611 239.5 631.611 243.5Z" fill="#4472C4"/><path d="M1.35756e-06-0.333333 19.1117-0.333255 19.1117 0.333411-1.35756e-06 0.333333ZM17.7784-3.99993 25.7784 0.000104987 17.7784 4.00007Z" fill="#B4C7E7" transform="matrix(1 0 0 -1 737.5 239.5)"/><path d="M921.5 239.167 937.944 239.167 937.944 239.833 921.5 239.833ZM936.611 235.5 944.611 239.5 936.611 243.5Z" fill="#B4C7E7"/><path d="M1137.5 239.167 1153.94 239.167 1153.94 239.833 1137.5 239.833ZM1152.61 235.5 1160.61 239.5 1152.61 243.5Z" fill="#B4C7E7"/><path d="M40.5001 221.5C40.5001 213.492 49.56 207 60.736 207L217.764 207C228.94 207 238 200.508 238 192.5 238 200.508 247.06 207 258.236 207L415.264 207C426.44 207 435.5 213.492 435.5 221.5" stroke="#4472C4" stroke-width="0.666667" stroke-miterlimit="8" fill="none" fill-rule="evenodd"/><path d="M470.5 221.5C470.5 213.492 479.56 207 490.736 207L579.264 207C590.44 207 599.5 200.508 599.5 192.5 599.5 200.508 608.56 207 619.736 207L708.264 207C719.44 207 728.5 213.492 728.5 221.5" stroke="#4472C4" stroke-width="0.666667" stroke-miterlimit="8" fill="none" fill-rule="evenodd"/><path d="M769.5 221.5C769.5 213.492 778.56 207 789.736 207L819.764 207C830.94 207 840 200.508 840 192.5 840 200.508 849.06 207 860.236 207L890.264 207C901.44 207 910.5 213.492 910.5 221.5" stroke="#B4C7E7" stroke-width="0.666667" stroke-miterlimit="8" fill="none" fill-rule="evenodd"/><path d="M950.5 221.5C950.5 213.492 959.56 207 970.736 207L1079.76 207C1090.94 207 1100 200.508 1100 192.5 1100 200.508 1109.06 207 1120.24 207L1229.26 207C1240.44 207 1249.5 213.492 1249.5 221.5" stroke="#B4C7E7" stroke-width="0.666667" stroke-miterlimit="8" fill="none" fill-rule="evenodd"/></g></svg>