<svg width="1232" height="135" xmlns="http://www.w3.org/2000/svg" xmlns:xlink="http://www.w3.org/1999/xlink" overflow="hidden"><defs><clipPath id="clip0"><rect x="15" y="534" width="1232" height="135"/></clipPath></defs><g clip-path="url(#clip0)" transform="translate(-15 -534)"><text font-family="Segoe UI Light,Segoe UI Light_MSFontService,sans-serif" font-weight="700" font-size="24" transform="translate(95.7396 565)">Create application image<tspan fill="#A6A6A6" font-weight="300" font-size="24" x="428.371" y="0">Push image</tspan><tspan fill="#A6A6A6" font-weight="300" font-size="24" x="674.676" y="0">Pull image</tspan><tspan fill="#A6A6A6" font-weight="300" font-size="24" x="909.704" y="0">Run application</tspan><tspan font-weight="300" font-size="16" x="-69.449" y="71">Create </tspan><tspan font-weight="300" font-size="16" x="-21.4357" y="71">Dockerfile</tspan><tspan font-weight="300" font-size="16" x="95.523" y="71">Create </tspan><tspan font-weight="300" font-size="16" x="143.536" y="71">AppDef.</tspan><tspan font-weight="300" font-size="16" x="196.663" y="71">json</tspan><tspan font-size="16" x="273.954" y="71">Finalize</tspan><tspan fill="#A6A6A6" font-style="italic" font-weight="300" font-size="16" x="369.651" y="71">Register to registry</tspan><tspan fill="#A6A6A6" font-weight="300" font-size="16" x="537.288" y="71">Push image</tspan><tspan fill="#A6A6A6" font-weight="300" font-size="16" x="659.732" y="71">Pull image with Push </tspan><tspan fill="#A6A6A6" font-weight="300" font-size="16" x="688.152" y="90">to Compute</tspan><tspan fill="#A6A6A6" font-weight="300" font-size="16" x="843.933" y="71">Run application in </tspan><tspan fill="#A6A6A6" font-weight="300" font-size="16" x="967.766" y="71">Jarvice</tspan><tspan fill="#A6A6A6" font-weight="300" font-size="16" x="1060.65" y="71">Gather logs</tspan></text><path d="M152.5 630.167 168.944 630.167 168.944 630.833 152.5 630.833ZM167.611 626.5 175.611 630.5 167.611 634.5Z" fill="#4472C4"/><path d="M0.0032903-0.333317 16.4478-0.170987 16.4412 0.495647-0.0032903 0.333317ZM15.1507-3.85064 23.1109 0.228136 15.0718 4.14897Z" fill="#4472C4" transform="matrix(1 0 0 -1 336.5 629.728)"/><path d="M0.00155809-0.33333 16.4467-0.25646 16.4436 0.410199-0.00155809 0.33333ZM15.1305-3.92932 23.1117 0.108031 15.0931 4.07059Z" fill="#B4C7E7" transform="matrix(1 0 0 -1 430.5 629.608)"/><path d="M600.5 629.167 616.945 629.167 616.945 629.833 600.5 629.833ZM615.611 625.5 623.611 629.5 615.611 633.5Z" fill="#B4C7E7"/><path d="M1.35756e-06-0.333333 19.1117-0.333255 19.1117 0.333411-1.35756e-06 0.333333ZM17.7784-3.99993 25.7784 0.000104987 17.7784 4.00007Z" fill="#B4C7E7" transform="matrix(1 0 0 -1 721.5 629.5)"/><path d="M905.5 629.167 921.944 629.167 921.944 629.833 905.5 629.833ZM920.611 625.5 928.611 629.5 920.611 633.5Z" fill="#B4C7E7"/><path d="M1120.5 629.167 1136.94 629.167 1136.94 629.833 1120.5 629.833ZM1135.61 625.5 1143.61 629.5 1135.61 633.5Z" fill="#B4C7E7"/><path d="M24.5001 611.5C24.5001 603.492 33.56 597 44.736 597L201.764 597C212.94 597 222 590.508 222 582.5 222 590.508 231.06 597 242.236 597L399.264 597C410.44 597 419.5 603.492 419.5 611.5" stroke="#4472C4" stroke-width="0.666667" stroke-miterlimit="8" fill="none" fill-rule="evenodd"/><path d="M453.5 611.5C453.5 603.492 462.56 597 473.736 597L562.764 597C573.94 597 583 590.508 583 582.5 583 590.508 592.06 597 603.236 597L692.264 597C703.44 597 712.5 603.492 712.5 611.5" stroke="#B4C7E7" stroke-width="0.666667" stroke-miterlimit="8" fill="none" fill-rule="evenodd"/><path d="M752.5 611.5C752.5 603.492 761.56 597 772.736 597L802.764 597C813.94 597 823 590.508 823 582.5 823 590.508 832.06 597 843.236 597L873.264 597C884.44 597 893.5 603.492 893.5 611.5" stroke="#B4C7E7" stroke-width="0.666667" stroke-miterlimit="8" fill="none" fill-rule="evenodd"/><path d="M934.5 611.5C934.5 603.492 943.56 597 954.736 597L1063.76 597C1074.94 597 1084 590.508 1084 582.5 1084 590.508 1093.06 597 1104.24 597L1213.26 597C1224.44 597 1233.5 603.492 1233.5 611.5" stroke="#B4C7E7" stroke-width="0.666667" stroke-miterlimit="8" fill="none" fill-rule="evenodd"/></g></svg>