<svg width="1232" height="134" xmlns="http://www.w3.org/2000/svg" xmlns:xlink="http://www.w3.org/1999/xlink" overflow="hidden"><defs><clipPath id="clip0"><rect x="14" y="269" width="1232" height="134"/></clipPath></defs><g clip-path="url(#clip0)" transform="translate(-14 -269)"><text font-family="Segoe UI Light,Segoe UI Light_MSFontService,sans-serif" font-weight="300" font-size="24" transform="translate(95.2125 300)">Create application image<tspan font-size="24" x="428.121" y="0">Push image</tspan><tspan font-weight="700" font-size="24" x="674.343" y="0">Pull image</tspan><tspan fill="#A6A6A6" font-size="24" x="909.454" y="0">Run application</tspan><tspan font-size="16" x="-69.699" y="70">Create </tspan><tspan font-size="16" x="-21.6857" y="70">Dockerfile</tspan><tspan font-size="16" x="95.273" y="70">Create </tspan><tspan font-size="16" x="143.286" y="70">AppDef.</tspan><tspan font-size="16" x="196.413" y="70">json</tspan><tspan font-size="16" x="273.787" y="70">Finalize</tspan><tspan fill="#A6A6A6" font-style="italic" font-weight="700" font-size="16" x="369.401" y="70">Register to registry</tspan><tspan font-size="16" x="537.038" y="70">Push image</tspan><tspan font-weight="700" font-size="16" x="659.399" y="70">Pull image with Push </tspan><tspan font-weight="700" font-size="16" x="687.812" y="89">to Compute</tspan><tspan fill="#A6A6A6" font-size="16" x="843.683" y="70">Run application in </tspan><tspan fill="#A6A6A6" font-size="16" x="967.516" y="70">Jarvice</tspan><tspan fill="#A6A6A6" font-size="16" x="1060.4" y="70">Gather logs</tspan></text><path d="M151.5 364.167 167.944 364.167 167.944 364.833 151.5 364.833ZM166.611 360.5 174.611 364.5 166.611 368.5Z" fill="#4472C4"/><path d="M0.0032903-0.333317 16.4478-0.170987 16.4412 0.495647-0.0032903 0.333317ZM15.1507-3.85064 23.1109 0.228136 15.0718 4.14897Z" fill="#4472C4" transform="matrix(1 0 0 -1 335.5 364.728)"/><path d="M0.00155809-0.33333 16.4467-0.25646 16.4436 0.410199-0.00155809 0.33333ZM15.1305-3.92932 23.1117 0.108031 15.0931 4.07059Z" fill="#4472C4" transform="matrix(1 0 0 -1 429.5 364.608)"/><path d="M599.5 364.167 615.945 364.167 615.945 364.833 599.5 364.833ZM614.611 360.5 622.611 364.5 614.611 368.5Z" fill="#4472C4"/><path d="M1.35756e-06-0.333333 19.1117-0.333255 19.1117 0.333411-1.35756e-06 0.333333ZM17.7784-3.99993 25.7784 0.000104987 17.7784 4.00007Z" fill="#4472C4" transform="matrix(1 0 0 -1 720.5 364.5)"/><path d="M904.5 364.167 920.944 364.167 920.944 364.833 904.5 364.833ZM919.611 360.5 927.611 364.5 919.611 368.5Z" fill="#B4C7E7"/><path d="M1119.5 364.167 1135.94 364.167 1135.94 364.833 1119.5 364.833ZM1134.61 360.5 1142.61 364.5 1134.61 368.5Z" fill="#B4C7E7"/><path d="M23.5001 346.5C23.5001 338.492 32.56 332 43.736 332L200.764 332C211.94 332 221 325.508 221 317.5 221 325.508 230.06 332 241.236 332L398.264 332C409.44 332 418.5 338.492 418.5 346.5" stroke="#4472C4" stroke-width="0.666667" stroke-miterlimit="8" fill="none" fill-rule="evenodd"/><path d="M452.5 346.5C452.5 338.492 461.56 332 472.736 332L561.764 332C572.94 332 582 325.508 582 317.5 582 325.508 591.06 332 602.236 332L691.264 332C702.44 332 711.5 338.492 711.5 346.5" stroke="#4472C4" stroke-width="0.666667" stroke-miterlimit="8" fill="none" fill-rule="evenodd"/><path d="M751.5 346.5C751.5 338.492 760.56 332 771.736 332L801.764 332C812.94 332 822 325.508 822 317.5 822 325.508 831.06 332 842.236 332L872.264 332C883.44 332 892.5 338.492 892.5 346.5" stroke="#4472C4" stroke-width="0.666667" stroke-miterlimit="8" fill="none" fill-rule="evenodd"/><path d="M933.5 346.5C933.5 338.492 942.56 332 953.736 332L1062.76 332C1073.94 332 1083 325.508 1083 317.5 1083 325.508 1092.06 332 1103.24 332L1212.26 332C1223.44 332 1232.5 338.492 1232.5 346.5" stroke="#B4C7E7" stroke-width="0.666667" stroke-miterlimit="8" fill="none" fill-rule="evenodd"/></g></svg>