<svg width="1232" height="134" xmlns="http://www.w3.org/2000/svg" xmlns:xlink="http://www.w3.org/1999/xlink" overflow="hidden"><defs><clipPath id="clip0"><rect x="9" y="527" width="1232" height="134"/></clipPath></defs><g clip-path="url(#clip0)" transform="translate(-9 -527)"><text font-family="Segoe UI Light,Segoe UI Light_MSFontService,sans-serif" font-weight="300" font-size="24" transform="translate(89.5458 558)">Create application image<tspan font-size="24" x="428.121" y="0">Push image</tspan><tspan font-size="24" x="674.426" y="0">Pull image</tspan><tspan font-weight="700" font-size="24" x="909.371" y="0">Run application</tspan><tspan font-size="16" x="-69.699" y="71">Create </tspan><tspan font-size="16" x="-21.6857" y="71">Dockerfile</tspan><tspan font-size="16" x="95.273" y="71">Create </tspan><tspan font-size="16" x="143.286" y="71">AppDef.</tspan><tspan font-size="16" x="196.413" y="71">json</tspan><tspan font-size="16" x="273.787" y="71">Finalize</tspan><tspan fill="#A6A6A6" font-style="italic" font-weight="700" font-size="16" x="369.401" y="70">Register to registry</tspan><tspan font-size="16" x="537.038" y="70">Push image</tspan><tspan font-size="16" x="659.482" y="70">Pull image with Push </tspan><tspan font-size="16" x="687.902" y="89">to Compute</tspan><tspan font-size="16" x="843.683" y="70">Run application in </tspan><tspan font-size="16" x="967.516" y="70">Jarvice</tspan><tspan font-weight="700" font-size="16" x="1060.32" y="70">Gather logs</tspan></text><path d="M145.5 623.167 161.944 623.167 161.944 623.833 145.5 623.833ZM160.611 619.5 168.611 623.5 160.611 627.5Z" fill="#4472C4"/><path d="M0.0032903-0.333317 16.4478-0.170987 16.4412 0.495647-0.0032903 0.333317ZM15.1507-3.85064 23.1109 0.228136 15.0718 4.14897Z" fill="#4472C4" transform="matrix(1 0 0 -1 329.5 622.728)"/><path d="M0.00155809-0.33333 16.4467-0.25646 16.4436 0.410199-0.00155809 0.33333ZM15.1305-3.92932 23.1117 0.108031 15.0931 4.07059Z" fill="#4472C4" transform="matrix(1 0 0 -1 424.5 622.608)"/><path d="M593.5 622.167 609.945 622.167 609.945 622.833 593.5 622.833ZM608.611 618.5 616.611 622.5 608.611 626.5Z" fill="#4472C4"/><path d="M1.35756e-06-0.333333 19.1117-0.333255 19.1117 0.333411-1.35756e-06 0.333333ZM17.7784-3.99993 25.7784 0.000104987 17.7784 4.00007Z" fill="#4472C4" transform="matrix(1 0 0 -1 714.5 622.5)"/><path d="M898.5 622.167 914.944 622.167 914.944 622.833 898.5 622.833ZM913.611 618.5 921.611 622.5 913.611 626.5Z" fill="#4472C4"/><path d="M1114.5 622.167 1130.94 622.167 1130.94 622.833 1114.5 622.833ZM1129.61 618.5 1137.61 622.5 1129.61 626.5Z" fill="#4472C4"/><path d="M17.5001 604.5C17.5001 596.492 26.56 590 37.736 590L194.764 590C205.94 590 215 583.508 215 575.5 215 583.508 224.06 590 235.236 590L392.264 590C403.44 590 412.5 596.492 412.5 604.5" stroke="#4472C4" stroke-width="0.666667" stroke-miterlimit="8" fill="none" fill-rule="evenodd"/><path d="M447.5 604.5C447.5 596.492 456.56 590 467.736 590L556.264 590C567.44 590 576.5 583.508 576.5 575.5 576.5 583.508 585.56 590 596.736 590L685.264 590C696.44 590 705.5 596.492 705.5 604.5" stroke="#4472C4" stroke-width="0.666667" stroke-miterlimit="8" fill="none" fill-rule="evenodd"/><path d="M746.5 604.5C746.5 596.492 755.56 590 766.736 590L796.764 590C807.94 590 817 583.508 817 575.5 817 583.508 826.06 590 837.236 590L867.264 590C878.44 590 887.5 596.492 887.5 604.5" stroke="#4472C4" stroke-width="0.666667" stroke-miterlimit="8" fill="none" fill-rule="evenodd"/><path d="M927.5 604.5C927.5 596.492 936.56 590 947.736 590L1056.76 590C1067.94 590 1077 583.508 1077 575.5 1077 583.508 1086.06 590 1097.24 590L1206.26 590C1217.44 590 1226.5 596.492 1226.5 604.5" stroke="#4472C4" stroke-width="0.666667" stroke-miterlimit="8" fill="none" fill-rule="evenodd"/></g></svg>