<?xml version="1.0" encoding="UTF-8" standalone="no"?>
<svg
   width="1232"
   height="134"
   overflow="hidden"
   version="1.1"
   id="svg2431"
   sodipodi:docname="GlobalProcess_step_2.svg"
   inkscape:version="1.1.2 (b8e25be833, 2022-02-05)"
   xmlns:inkscape="http://www.inkscape.org/namespaces/inkscape"
   xmlns:sodipodi="http://sodipodi.sourceforge.net/DTD/sodipodi-0.dtd"
   xmlns="http://www.w3.org/2000/svg"
   xmlns:svg="http://www.w3.org/2000/svg">
  <sodipodi:namedview
     id="namedview2433"
     pagecolor="#505050"
     bordercolor="#eeeeee"
     borderopacity="1"
     inkscape:pageshadow="0"
     inkscape:pageopacity="0"
     inkscape:pagecheckerboard="0"
     showgrid="false"
     inkscape:zoom="0.85876623"
     inkscape:cx="615.41777"
     inkscape:cy="67.538752"
     inkscape:window-width="1920"
     inkscape:window-height="1009"
     inkscape:window-x="-8"
     inkscape:window-y="-8"
     inkscape:window-maximized="1"
     inkscape:current-layer="svg2431" />
  <defs
     id="defs2371">
    <clipPath
       id="clip0">
      <rect
         x="27"
         y="379"
         width="1232"
         height="134"
         id="rect2368" />
    </clipPath>
  </defs>
  <g
     clip-path="url(#clip0)"
     transform="translate(-27 -379)"
     id="g2429">
    <g
       aria-label="Create application imagePush imagePull imageRun applicationCreateDockerfileCreateAppDef.jsonFinalizeRegister to registryPush imagePull image with Pushto ComputeRun application inJarviceGather logs"
       transform="translate(107.962 410)"
       id="text2405"
       style="font-weight:700;font-size:24px;font-family:'Segoe UI Light', 'Segoe UI Light_MSFontService', sans-serif">
      <path
         d="m 13.96875,-0.59765625 q -1.839844,0.890625 -4.8046875,0.890625 -3.8671875,0 -6.0820312,-2.27343745 -2.2148438,-2.2734375 -2.2148438,-6.0585938 0,-4.0312505 2.484375,-6.5390625 2.4960937,-2.507812 6.46875,-2.507812 2.4609375,0 4.1484375,0.621093 v 3.644531 q -1.6875,-1.007812 -3.84375,-1.007812 -2.3671875,0 -3.8203125,1.488281 -1.453125,1.488281 -1.453125,4.0312502 0,2.4375001 1.3710937,3.8906251 1.3710938,1.4414062 3.6914063,1.4414062 2.2148435,0 4.0546875,-1.078125 z"
         id="path2435" />
      <path
         d="M 24.292969,-8.6601563 Q 23.625,-9.0234375 22.734375,-9.0234375 q -1.207031,0 -1.886719,0.890625 -0.679687,0.8789063 -0.679687,2.4023438 V 0 h -3.703125 v -12 h 3.703125 v 2.2265625 h 0.04687 q 0.878906,-2.4375005 3.164062,-2.4375005 0.585938,0 0.914063,0.140625 z"
         id="path2437" />
      <path
         d="m 34.6875,-4.9453125 h -7.828125 q 0.1875,2.6132812 3.292969,2.6132812 1.980468,0 3.480468,-0.9375 v 2.67187505 q -1.664062,0.890625 -4.324218,0.890625 -2.90625,0 -4.511719,-1.60546875 -1.605469,-1.6171875 -1.605469,-4.5 0,-2.9882813 1.734375,-4.734375 1.734375,-1.746094 4.265625,-1.746094 2.625,0 4.054688,1.558594 1.441406,1.5585937 1.441406,4.2304688 z M 31.253906,-7.21875 q 0,-2.578125 -2.085937,-2.578125 -0.890625,0 -1.546875,0.7382812 -0.644532,0.7382813 -0.785157,1.8398438 z"
         id="path2439" />
      <path
         d="m 46.007812,0 h -3.503906 v -1.7226562 h -0.04687 Q 41.25,0.29296875 38.882812,0.29296875 q -1.746093,0 -2.753906,-0.984375 Q 35.132812,-1.6875 35.132812,-3.3398438 q 0,-3.4921874 4.136719,-4.0312499 l 3.257813,-0.4335938 q 0,-1.96875 -2.132813,-1.96875 -2.144531,0 -4.078125,1.2773437 v -2.7890622 q 0.773438,-0.398438 2.109375,-0.703125 1.347656,-0.304688 2.449219,-0.304688 5.132812,0 5.132812,5.121094 z m -3.480468,-4.875 v -0.8085937 l -2.179688,0.28125 q -1.804687,0.234375 -1.804687,1.6289062 0,0.6328125 0.433593,1.0429687 0.445313,0.3984375 1.195313,0.3984375 1.042969,0 1.699219,-0.7148437 0.65625,-0.7265625 0.65625,-1.828125 z"
         id="path2441" />
      <path
         d="M 55.136719,-0.140625 Q 54.316406,0.29296875 52.664062,0.29296875 48.75,0.29296875 48.75,-3.7734375 V -9.2695313 H 46.804687 V -12 H 48.75 v -2.589844 l 3.691406,-1.054687 V -12 h 2.695313 v 2.7304687 h -2.695313 v 4.8515626 q 0,1.8749999 1.488281,1.8749999 0.585938,0 1.207032,-0.3398437 z"
         id="path2443" />
      <path
         d="m 65.789062,-4.9453125 h -7.828125 q 0.1875,2.6132812 3.292969,2.6132812 1.980469,0 3.480469,-0.9375 v 2.67187505 q -1.664063,0.890625 -4.324219,0.890625 -2.90625,0 -4.511719,-1.60546875 -1.605468,-1.6171875 -1.605468,-4.5 0,-2.9882813 1.734375,-4.734375 1.734375,-1.746094 4.265625,-1.746094 2.625,0 4.054687,1.558594 1.441406,1.5585937 1.441406,4.2304688 z M 62.355469,-7.21875 q 0,-2.578125 -2.085938,-2.578125 -0.890625,0 -1.546875,0.7382812 -0.644531,0.7382813 -0.785156,1.8398438 z"
         id="path2445" />
      <path
         d="m 83.683594,0 h -3.503907 v -1.7226562 h -0.04687 q -1.207031,2.01562495 -3.574218,2.01562495 -1.746094,0 -2.753907,-0.984375 Q 72.808594,-1.6875 72.808594,-3.3398438 q 0,-3.4921874 4.136718,-4.0312499 l 3.257813,-0.4335938 q 0,-1.96875 -2.132813,-1.96875 -2.144531,0 -4.078125,1.2773437 v -2.7890622 q 0.773438,-0.398438 2.109375,-0.703125 1.347657,-0.304688 2.449219,-0.304688 5.132813,0 5.132813,5.121094 z m -3.480469,-4.875 v -0.8085937 l -2.179688,0.28125 q -1.804687,0.234375 -1.804687,1.6289062 0,0.6328125 0.433594,1.0429687 0.445312,0.3984375 1.195312,0.3984375 1.042969,0 1.699219,-0.7148437 0.65625,-0.7265625 0.65625,-1.828125 z"
         id="path2447" />
      <path
         d="m 89.308594,-1.3945312 h -0.04687 V 5.5195312 H 85.558594 V -12 h 3.703125 v 1.804687 h 0.04687 q 1.371093,-2.097656 3.855468,-2.097656 2.332032,0 3.597657,1.605469 1.277343,1.59375 1.277343,4.3476563 0,2.9999999 -1.488281,4.8164062 -1.476562,1.81640625 -3.9375,1.81640625 -2.167969,0 -3.304687,-1.68749995 z m -0.105469,-4.921875 v 0.9609375 q 0,1.2421875 0.65625,2.0273437 0.65625,0.7851562 1.722656,0.7851562 1.265625,0 1.957031,-0.9726562 0.703125,-0.984375 0.703125,-2.7773437 0,-3.1640626 -2.460937,-3.1640626 -1.136719,0 -1.863281,0.8671875 -0.714844,0.8554688 -0.714844,2.2734376 z"
         id="path2449" />
      <path
         d="m 102.75,-1.3945312 h -0.0469 V 5.5195312 H 99 V -12 h 3.70313 v 1.804687 h 0.0469 q 1.37109,-2.097656 3.85547,-2.097656 2.33203,0 3.59766,1.605469 1.27734,1.59375 1.27734,4.3476563 0,2.9999999 -1.48828,4.8164062 -1.47656,1.81640625 -3.9375,1.81640625 -2.16797,0 -3.30469,-1.68749995 z m -0.10547,-4.921875 v 0.9609375 q 0,1.2421875 0.65625,2.0273437 0.65625,0.7851562 1.72266,0.7851562 1.26562,0 1.95703,-0.9726562 0.70312,-0.984375 0.70312,-2.7773437 0,-3.1640626 -2.46093,-3.1640626 -1.13672,0 -1.86328,0.8671875 -0.71485,0.8554688 -0.71485,2.2734376 z"
         id="path2451" />
      <path
         d="m 116.14453,0 h -3.70312 v -17.765625 h 3.70312 z"
         id="path2453" />
      <path
         d="m 119.23828,-13.898438 q -0.9375,0 -1.53515,-0.550781 -0.59766,-0.5625 -0.59766,-1.371094 0,-0.832031 0.59766,-1.359374 0.59765,-0.527344 1.53515,-0.527344 0.94922,0 1.53516,0.527344 0.59765,0.527343 0.59765,1.359374 0,0.84375 -0.59765,1.382813 -0.58594,0.539062 -1.53516,0.539062 z M 121.06641,0 h -3.70313 v -12 h 3.70313 z"
         id="path2455" />
      <path
         d="m 131.37891,-0.43359375 q -1.25391,0.7265625 -3.6211,0.7265625 -2.76562,0 -4.47656,-1.67578125 -1.71094,-1.6757813 -1.71094,-4.3242187 0,-3.0585938 1.82813,-4.8164068 1.83984,-1.769531 4.91015,-1.769531 2.1211,0 3.07032,0.5625 v 3.1406252 q -1.16016,-0.8671875 -2.58985,-0.8671875 -1.59375,0 -2.53125,0.9375 -0.92578,0.9257813 -0.92578,2.5664063 0,1.59375 0.89063,2.5078125 0.89062,0.9023437 2.44921,0.9023437 1.38282,0 2.70704,-0.8671875 z"
         id="path2457" />
      <path
         d="m 142.92187,0 h -3.5039 v -1.7226562 h -0.0469 q -1.20703,2.01562495 -3.57422,2.01562495 -1.74609,0 -2.7539,-0.984375 -0.9961,-0.99609375 -0.9961,-2.64843755 0,-3.4921874 4.13672,-4.0312499 l 3.25782,-0.4335938 q 0,-1.96875 -2.13282,-1.96875 -2.14453,0 -4.07812,1.2773437 v -2.7890622 q 0.77344,-0.398438 2.10937,-0.703125 1.34766,-0.304688 2.44922,-0.304688 5.13281,0 5.13281,5.121094 z m -3.48046,-4.875 v -0.8085937 l -2.17969,0.28125 q -1.80469,0.234375 -1.80469,1.6289062 0,0.6328125 0.43359,1.0429687 0.44532,0.3984375 1.19532,0.3984375 1.04297,0 1.69922,-0.7148437 0.65625,-0.7265625 0.65625,-1.828125 z"
         id="path2459" />
      <path
         d="m 152.05078,-0.140625 q -0.82031,0.43359375 -2.47266,0.43359375 -3.91406,0 -3.91406,-4.06640625 v -5.4960938 h -1.94531 V -12 h 1.94531 v -2.589844 l 3.69141,-1.054687 V -12 h 2.69531 v 2.7304687 h -2.69531 v 4.8515626 q 0,1.8749999 1.48828,1.8749999 0.58594,0 1.20703,-0.3398437 z"
         id="path2461" />
      <path
         d="m 153.79687,-13.898438 q -0.9375,0 -1.53515,-0.550781 -0.59766,-0.5625 -0.59766,-1.371094 0,-0.832031 0.59766,-1.359374 0.59765,-0.527344 1.53515,-0.527344 0.94922,0 1.53516,0.527344 0.59766,0.527343 0.59766,1.359374 0,0.84375 -0.59766,1.382813 -0.58594,0.539062 -1.53516,0.539062 z M 155.625,0 h -3.70313 v -12 h 3.70313 z"
         id="path2463" />
      <path
         d="m 162.5625,0.29296875 q -3,0 -4.72266,-1.67578125 -1.71093,-1.6875 -1.71093,-4.5703125 0,-2.9765625 1.78125,-4.652344 1.78125,-1.6875 4.8164,-1.6875 2.98828,0 4.6875,1.6875 1.69922,1.6757815 1.69922,4.4414065 0,2.9882812 -1.75781,4.7226563 -1.7461,1.73437495 -4.79297,1.73437495 z m 0.0937,-9.75000005 q -1.3125,0 -2.03906,0.9023438 -0.72657,0.9023438 -0.72657,2.5546875 0,3.4570312 2.78907,3.4570312 2.66015,0 2.66015,-3.5507812 0,-3.3632813 -2.68359,-3.3632813 z"
         id="path2465" />
      <path
         d="m 181.89844,0 h -3.69141 v -6.6679687 q 0,-2.7890626 -1.99219,-2.7890626 -0.96093,0 -1.58203,0.7382813 -0.62109,0.7382813 -0.62109,1.875 V 0 h -3.70313 v -12 h 3.70313 v 1.898437 h 0.0469 q 1.32422,-2.191406 3.85547,-2.191406 3.98438,0 3.98438,4.9453128 z"
         id="path2467" />
      <path
         d="m 191.60156,-13.898438 q -0.9375,0 -1.53515,-0.550781 -0.59766,-0.5625 -0.59766,-1.371094 0,-0.832031 0.59766,-1.359374 0.59765,-0.527344 1.53515,-0.527344 0.94922,0 1.53516,0.527344 0.59765,0.527343 0.59765,1.359374 0,0.84375 -0.59765,1.382813 -0.58594,0.539062 -1.53516,0.539062 z M 193.42969,0 h -3.70313 v -12 h 3.70313 z"
         id="path2469" />
      <path
         d="m 213.70312,0 h -3.6914 v -6.84375 q 0,-2.6132813 -1.92188,-2.6132813 -0.91406,0 -1.48828,0.7851563 -0.57422,0.7851563 -0.57422,1.9570313 V 0 h -3.70312 v -6.9140625 q 0,-2.5429688 -1.88672,-2.5429688 -0.94922,0 -1.52344,0.75 -0.5625,0.7500001 -0.5625,2.0390626 V 0 h -3.70312 v -12 h 3.70312 v 1.875 h 0.0469 q 0.57422,-0.960938 1.60547,-1.558594 1.04296,-0.609375 2.27343,-0.609375 2.54297,0 3.48047,2.238281 1.3711,-2.238281 4.03125,-2.238281 3.91406,0 3.91406,4.8281253 z"
         id="path2471" />
      <path
         d="m 224.35547,0 h -3.50391 v -1.7226562 h -0.0469 q -1.20703,2.01562495 -3.57422,2.01562495 -1.7461,0 -2.75391,-0.984375 -0.99609,-0.99609375 -0.99609,-2.64843755 0,-3.4921874 4.13672,-4.0312499 l 3.25781,-0.4335938 q 0,-1.96875 -2.13281,-1.96875 -2.14453,0 -4.07813,1.2773437 v -2.7890622 q 0.77344,-0.398438 2.10938,-0.703125 1.34765,-0.304688 2.44922,-0.304688 5.13281,0 5.13281,5.121094 z M 220.875,-4.875 v -0.8085937 l -2.17969,0.28125 q -1.80469,0.234375 -1.80469,1.6289062 0,0.6328125 0.4336,1.0429687 0.44531,0.3984375 1.19531,0.3984375 1.04297,0 1.69922,-0.7148437 Q 220.875,-3.7734375 220.875,-4.875 Z"
         id="path2473" />
      <path
         d="m 237.99609,-1.3710937 q 0,3.3398437 -1.93359,5.1679687 -1.93359,1.8398437 -5.60156,1.8398437 -2.42578,0 -3.84375,-0.6914062 V 1.828125 q 1.85156,1.078125 3.73828,1.078125 1.875,0 2.90625,-0.9960938 1.03125,-0.98437495 1.03125,-2.6835937 v -0.9492187 h -0.0469 q -1.26562,2.01562495 -3.73828,2.01562495 -2.29687,0 -3.64453,-1.61718745 -1.34766,-1.6171876 -1.34766,-4.3359375 0,-3.0468751 1.5,-4.8398438 1.5,-1.792969 3.94922,-1.792969 2.19141,0 3.28125,1.6875 h 0.0469 V -12 h 3.70312 z m -3.65625,-4.3945313 v -0.9492187 q 0,-1.1367188 -0.67968,-1.9335938 -0.66797,-0.8085938 -1.7461,-0.8085938 -1.23047,0 -1.93359,0.9609375 -0.70313,0.9609376 -0.70313,2.7070313 0,1.5 0.66797,2.3789062 0.66797,0.8671875 1.82813,0.8671875 1.14843,0 1.85156,-0.8789062 0.71484,-0.890625 0.71484,-2.34375 z"
         id="path2475" />
      <path
         d="M 250.45312,-4.9453125 H 242.625 q 0.1875,2.6132812 3.29297,2.6132812 1.98047,0 3.48047,-0.9375 v 2.67187505 q -1.66407,0.890625 -4.32422,0.890625 -2.90625,0 -4.51172,-1.60546875 -1.60547,-1.6171875 -1.60547,-4.5 0,-2.9882813 1.73438,-4.734375 1.73437,-1.746094 4.26562,-1.746094 2.625,0 4.05469,1.558594 1.4414,1.5585937 1.4414,4.2304688 z M 247.01953,-7.21875 q 0,-2.578125 -2.08594,-2.578125 -0.89062,0 -1.54687,0.7382812 -0.64453,0.7382813 -0.78516,1.8398438 z"
         id="path2477" />
      <path
         d="M 431.68741,-6.7382812 V 0 h -1.16016 v -16.804687 h 4.05469 q 2.58984,0 3.96094,1.207031 1.37109,1.195312 1.37109,3.503906 0,2.34375 -1.53516,3.8554687 -1.52343,1.5000001 -4.27734,1.5000001 z m 0,-8.9999998 v 7.9335935 h 2.39062 q 2.27344,0 3.45703,-1.078125 1.1836,-1.0898438 1.1836,-3.0703125 0,-3.785156 -4.34766,-3.785156 z"
         style="fill:#a6a6a6"
         id="path2479" />
      <path
         d="m 451.26944,0 v -2.1796875 h -0.0469 q -1.2539,2.47265625 -3.86718,2.47265625 -4.25391,0 -4.25391,-5.35546875 V -12 h 1.08984 v 6.6679688 q 0,2.4374999 0.79688,3.5390625 0.80859,1.10156245 2.53125,1.10156245 1.67578,0 2.70703,-1.23046875 1.04297,-1.2304688 1.04297,-3.28125 V -12 h 1.07812 V 0 Z"
         style="fill:#a6a6a6"
         id="path2481" />
      <path
         d="M 455.57022,-0.52734375 V -1.828125 q 0.60938,0.5273438 1.47656,0.83203125 0.86719,0.3046875 1.5,0.3046875 2.82422,0 2.82422,-2.30859375 0,-0.796875 -0.62109,-1.359375 -0.6211,-0.5625 -2.01563,-1.1601562 -1.72265,-0.75 -2.42578,-1.546875 -0.6914,-0.8085938 -0.6914,-1.9570313 0,-1.4648435 1.11328,-2.3671875 1.125,-0.902344 2.76562,-0.902344 1.54688,0 2.64844,0.632813 v 1.21875 q -1.33594,-0.867188 -2.76563,-0.867188 -1.18359,0 -1.91015,0.621094 -0.72656,0.609375 -0.72656,1.59375 0,0.8554687 0.45703,1.3945313 0.45703,0.5273437 2.01562,1.21875 1.875,0.84375 2.57813,1.5703125 Q 462.496,-4.1953125 462.496,-3 q 0,1.4296875 -1.07812,2.3671875 -1.06641,0.92578125 -2.95313,0.92578125 -1.73437,0 -2.89453,-0.8203125 z"
         style="fill:#a6a6a6"
         id="path2483" />
      <path
         d="m 473.66397,0 v -7.1953125 q 0,-2.1328125 -0.77344,-3.1171875 -0.77343,-0.996094 -2.41406,-0.996094 -1.54687,0 -2.71875,1.207031 -1.17187,1.2070317 -1.17187,3.4570318 V 0 h -1.07813 v -17.765625 h 1.07813 v 7.921875 h 0.0469 q 1.41797,-2.449219 4.125,-2.449219 1.94531,0 2.96484,1.253906 1.01954,1.2539067 1.01954,3.5976568 V 0 Z"
         style="fill:#a6a6a6"
         id="path2485" />
      <path
         d="m 485.45303,-15.023438 q -0.35156,0 -0.62109,-0.257812 -0.26953,-0.257813 -0.26953,-0.65625 0,-0.386719 0.26953,-0.621094 0.28125,-0.246093 0.62109,-0.246093 0.36328,0 0.63282,0.234375 0.28125,0.234375 0.28125,0.632812 0,0.375 -0.26954,0.644531 -0.26953,0.269531 -0.64453,0.269531 z M 484.92569,0 v -12 h 1.07812 V 0 Z"
         style="fill:#a6a6a6"
         id="path2487" />
      <path
         d="m 504.89444,0 v -7.21875 q 0,-2.2617188 -0.71484,-3.175781 -0.70313,-0.914063 -2.23829,-0.914063 -1.41796,0 -2.44921,1.21875 -1.03125,1.2187502 -1.03125,3.058594 V 0 h -1.07813 v -7.3007812 q 0,-4.0078128 -3.04687,-4.0078128 -1.46485,0 -2.4375,1.230469 -0.97266,1.21875 -0.97266,3.1640625 V 0 h -1.07813 v -12 h 1.07813 v 1.992187 h 0.0469 q 1.25391,-2.285156 3.66797,-2.285156 1.3125,0 2.23828,0.761719 0.9375,0.75 1.26563,1.9804687 0.5625,-1.3007817 1.60547,-2.0156247 1.05469,-0.726563 2.28515,-0.726563 3.9375,0 3.9375,4.8750003 V 0 Z"
         style="fill:#a6a6a6"
         id="path2489" />
      <path
         d="m 516.7421,0 v -2.4023438 h -0.0469 q -0.57422,1.2304688 -1.67578,1.96875005 -1.08984,0.7265625 -2.42578,0.7265625 -1.71094,0 -2.70703,-0.9609375 -0.9961,-0.96093745 -0.9961,-2.42578125 0,-3.140625 4.16016,-3.796875 l 3.69141,-0.5507812 q 0,-3.8671878 -2.90625,-3.8671878 -1.98047,0 -3.85547,1.5937502 v -1.3007812 q 0.66797,-0.527344 1.80468,-0.902344 1.14844,-0.375 2.15625,-0.375 1.85157,0 2.85938,1.148438 1.01953,1.1484372 1.01953,3.3398435 V 0 Z m -3.30469,-5.9765625 q -1.88672,0.2695313 -2.64844,0.8789063 -0.76172,0.5976562 -0.76172,1.9570312 0,1.0664062 0.70313,1.7578125 0.71484,0.69140625 1.98047,0.69140625 1.73437,0 2.88281,-1.27734375 1.14844,-1.2890625 1.14844,-3.3164062 v -1.171875 z"
         style="fill:#a6a6a6"
         id="path2491" />
      <path
         d="m 531.02725,-0.890625 q 0,3.3867188 -1.47656,4.9570312 -1.47656,1.5703125 -4.59375,1.5703125 -1.73438,0 -3.57422,-0.9140625 V 3.5976563 q 1.89844,1.0546874 3.59766,1.0546874 4.96875,0 4.96875,-5.24999995 V -2.15625 h -0.0469 q -1.41797,2.44921875 -4.32422,2.44921875 -2.21484,0 -3.62109,-1.60546875 -1.39453,-1.6054688 -1.39453,-4.4765625 0,-2.8710938 1.51172,-4.6875005 1.51172,-1.816406 3.98437,-1.816406 2.64844,0 3.84375,2.191406 h 0.0469 V -12 h 1.07812 z m -1.07812,-6.5039062 q 0,-1.5937501 -1.07813,-2.7539068 -1.0664,-1.160156 -2.78906,-1.160156 -1.98047,0 -3.1875,1.4882815 -1.20703,1.4882812 -1.20703,3.9375 0,2.4609375 1.10156,3.8320312 1.11328,1.35937505 2.92969,1.35937505 1.93359,0 3.08203,-1.25390625 1.14844,-1.2539063 1.14844,-3.0703125 z"
         style="fill:#a6a6a6"
         id="path2493" />
      <path
         d="m 535.12881,-5.953125 q 0,2.4726562 1.13672,3.8671875 1.14844,1.39453125 3.14063,1.39453125 2.01562,0 3.9375,-1.48828125 V -1.03125 q -1.86328,1.32421875 -4.16016,1.32421875 -2.32031,0 -3.75,-1.66406245 -1.42969,-1.6640626 -1.42969,-4.6992188 0,-2.625 1.48829,-4.4179685 1.5,-1.804688 3.89062,-1.804688 2.23828,0 3.43359,1.570313 1.19532,1.5703122 1.19532,4.2890623 v 0.4804687 z m 7.75782,-0.984375 q -0.0703,-2.0742188 -0.9961,-3.222656 -0.92578,-1.148438 -2.55468,-1.148438 -1.6875,0 -2.80079,1.136719 -1.10156,1.125 -1.35937,3.234375 z"
         style="fill:#a6a6a6"
         id="path2495" />
      <path
         d="M 677.99243,-6.7382812 V 0 h -1.16015 v -16.804687 h 4.05468 q 2.58985,0 3.96094,1.207031 1.37109,1.195312 1.37109,3.503906 0,2.34375 -1.53515,3.8554687 -1.52344,1.5000001 -4.27735,1.5000001 z m 0,-8.9999998 v 7.9335935 h 2.39063 q 2.27343,0 3.45703,-1.078125 1.18359,-1.0898438 1.18359,-3.0703125 0,-3.785156 -4.34765,-3.785156 z"
         style="fill:#a6a6a6"
         id="path2497" />
      <path
         d="m 697.57446,0 v -2.1796875 h -0.0469 q -1.25391,2.47265625 -3.86719,2.47265625 -4.25391,0 -4.25391,-5.35546875 V -12 h 1.08985 v 6.6679688 q 0,2.4374999 0.79687,3.5390625 0.8086,1.10156245 2.53125,1.10156245 1.67578,0 2.70703,-1.23046875 1.04297,-1.2304688 1.04297,-3.28125 V -12 h 1.07813 V 0 Z"
         style="fill:#a6a6a6"
         id="path2499" />
      <path
         d="m 702.49634,0 v -17.765625 h 1.07812 V 0 Z"
         style="fill:#a6a6a6"
         id="path2501" />
      <path
         d="m 707.41821,0 v -17.765625 h 1.07813 V 0 Z"
         style="fill:#a6a6a6"
         id="path2503" />
      <path
         d="m 719.44165,-15.023438 q -0.35156,0 -0.62109,-0.257812 -0.26953,-0.257813 -0.26953,-0.65625 0,-0.386719 0.26953,-0.621094 0.28125,-0.246093 0.62109,-0.246093 0.36328,0 0.63281,0.234375 0.28125,0.234375 0.28125,0.632812 0,0.375 -0.26953,0.644531 -0.26953,0.269531 -0.64453,0.269531 z M 718.91431,0 v -12 h 1.07812 V 0 Z"
         style="fill:#a6a6a6"
         id="path2505" />
      <path
         d="m 738.88306,0 v -7.21875 q 0,-2.2617188 -0.71485,-3.175781 -0.70312,-0.914063 -2.23828,-0.914063 -1.41797,0 -2.44922,1.21875 -1.03125,1.2187502 -1.03125,3.058594 V 0 h -1.07812 v -7.3007812 q 0,-4.0078128 -3.04688,-4.0078128 -1.46484,0 -2.4375,1.230469 -0.97265,1.21875 -0.97265,3.1640625 V 0 h -1.07813 v -12 h 1.07813 v 1.992187 h 0.0469 q 1.25391,-2.285156 3.66797,-2.285156 1.3125,0 2.23828,0.761719 0.9375,0.75 1.26563,1.9804687 0.5625,-1.3007817 1.60547,-2.0156247 1.05468,-0.726563 2.28515,-0.726563 3.9375,0 3.9375,4.8750003 V 0 Z"
         style="fill:#a6a6a6"
         id="path2507" />
      <path
         d="m 750.73071,0 v -2.4023438 h -0.0469 q -0.57422,1.2304688 -1.67578,1.96875005 -1.08985,0.7265625 -2.42578,0.7265625 -1.71094,0 -2.70704,-0.9609375 -0.99609,-0.96093745 -0.99609,-2.42578125 0,-3.140625 4.16016,-3.796875 l 3.6914,-0.5507812 q 0,-3.8671878 -2.90625,-3.8671878 -1.98047,0 -3.85547,1.5937502 v -1.3007812 q 0.66797,-0.527344 1.80469,-0.902344 1.14844,-0.375 2.15625,-0.375 1.85156,0 2.85938,1.148438 1.01953,1.1484372 1.01953,3.3398435 V 0 Z m -3.30468,-5.9765625 q -1.88672,0.2695313 -2.64844,0.8789063 -0.76172,0.5976562 -0.76172,1.9570312 0,1.0664062 0.70312,1.7578125 0.71485,0.69140625 1.98047,0.69140625 1.73438,0 2.88282,-1.27734375 1.14843,-1.2890625 1.14843,-3.3164062 v -1.171875 z"
         style="fill:#a6a6a6"
         id="path2509" />
      <path
         d="m 765.01587,-0.890625 q 0,3.3867188 -1.47656,4.9570312 -1.47657,1.5703125 -4.59375,1.5703125 -1.73438,0 -3.57422,-0.9140625 V 3.5976563 q 1.89844,1.0546874 3.59765,1.0546874 4.96875,0 4.96875,-5.24999995 V -2.15625 h -0.0469 q -1.41797,2.44921875 -4.32422,2.44921875 -2.21484,0 -3.62109,-1.60546875 -1.39453,-1.6054688 -1.39453,-4.4765625 0,-2.8710938 1.51171,-4.6875005 1.51172,-1.816406 3.98438,-1.816406 2.64844,0 3.84375,2.191406 h 0.0469 V -12 h 1.07813 z m -1.07813,-6.5039062 q 0,-1.5937501 -1.07812,-2.7539068 -1.06641,-1.160156 -2.78906,-1.160156 -1.98047,0 -3.1875,1.4882815 -1.20703,1.4882812 -1.20703,3.9375 0,2.4609375 1.10156,3.8320312 1.11328,1.35937505 2.92969,1.35937505 1.93359,0 3.08203,-1.25390625 1.14843,-1.2539063 1.14843,-3.0703125 z"
         style="fill:#a6a6a6"
         id="path2511" />
      <path
         d="m 769.11743,-5.953125 q 0,2.4726562 1.13672,3.8671875 1.14844,1.39453125 3.14063,1.39453125 2.01562,0 3.9375,-1.48828125 V -1.03125 q -1.86329,1.32421875 -4.16016,1.32421875 -2.32031,0 -3.75,-1.66406245 -1.42969,-1.6640626 -1.42969,-4.6992188 0,-2.625 1.48828,-4.4179685 1.5,-1.804688 3.89063,-1.804688 2.23828,0 3.43359,1.570313 1.19531,1.5703122 1.19531,4.2890623 v 0.4804687 z m 7.75781,-0.984375 q -0.0703,-2.0742188 -0.99609,-3.222656 -0.92578,-1.148438 -2.55469,-1.148438 -1.6875,0 -2.80078,1.136719 -1.10156,1.125 -1.35937,3.234375 z"
         style="fill:#a6a6a6"
         id="path2513" />
      <path
         d="m 920.46179,0 -2.23828,-4.921875 q -0.69141,-1.5234375 -1.38281,-2.0390625 -0.69141,-0.5273437 -1.73438,-0.5273437 h -2.08593 V 0 h -1.16016 v -16.804687 h 4.66406 q 2.22656,0 3.49219,1.207031 1.27734,1.195312 1.27734,3.164062 0,1.816406 -1.04297,3.0351565 -1.04296,1.21875 -2.91796,1.5703125 v 0.046875 q 0.99609,0.3984375 1.94531,2.4257813 L 921.77429,0 Z m -7.4414,-15.738281 v 7.1953122 h 2.89453 q 1.92187,0 3.04687,-1.0078125 1.13672,-1.0078127 1.13672,-2.7656247 0,-1.605469 -1.01953,-2.507813 -1.01953,-0.914062 -2.91797,-0.914062 z"
         style="fill:#a6a6a6"
         id="path2515" />
      <path
         d="m 932.87195,0 v -2.1796875 h -0.0469 q -1.2539,2.47265625 -3.86718,2.47265625 -4.25391,0 -4.25391,-5.35546875 V -12 h 1.08984 v 6.6679688 q 0,2.4374999 0.79688,3.5390625 0.80859,1.10156245 2.53125,1.10156245 1.67578,0 2.70703,-1.23046875 1.04297,-1.2304688 1.04297,-3.28125 V -12 h 1.07812 V 0 Z"
         style="fill:#a6a6a6"
         id="path2517" />
      <path
         d="m 945.95007,0 v -6.984375 q 0,-4.324219 -3.11718,-4.324219 -1.73438,0 -2.84766,1.277344 -1.11328,1.265625 -1.11328,3.140625 V 0 h -1.07813 v -12 h 1.07813 v 2.1796875 h 0.0469 q 1.3125,-2.4726565 4.10157,-2.4726565 1.94531,0 2.97656,1.300781 1.03125,1.289063 1.03125,3.6914068 V 0 Z"
         style="fill:#a6a6a6"
         id="path2519" />
      <path
         d="m 964.38367,0 v -2.4023438 h -0.0469 q -0.57422,1.2304688 -1.67578,1.96875005 -1.08984,0.7265625 -2.42578,0.7265625 -1.71094,0 -2.70703,-0.9609375 -0.9961,-0.96093745 -0.9961,-2.42578125 0,-3.140625 4.16016,-3.796875 l 3.69141,-0.5507812 q 0,-3.8671878 -2.90625,-3.8671878 -1.98047,0 -3.85547,1.5937502 v -1.3007812 q 0.66797,-0.527344 1.80469,-0.902344 1.14843,-0.375 2.15625,-0.375 1.85156,0 2.85937,1.148438 1.01953,1.1484372 1.01953,3.3398435 V 0 Z m -3.30469,-5.9765625 q -1.88672,0.2695313 -2.64844,0.8789063 -0.76172,0.5976562 -0.76172,1.9570312 0,1.0664062 0.70313,1.7578125 0.71484,0.69140625 1.98047,0.69140625 1.73437,0 2.88281,-1.27734375 1.14844,-1.2890625 1.14844,-3.3164062 v -1.171875 z"
         style="fill:#a6a6a6"
         id="path2521" />
      <path
         d="m 970.19617,-2.1328125 h -0.0469 v 7.6523437 h -1.07812 V -12 h 1.07812 v 2.4726562 h 0.0469 q 0.64453,-1.3242192 1.83984,-2.0390622 1.20703,-0.726563 2.64844,-0.726563 2.28515,0 3.5625,1.582031 1.28906,1.570313 1.28906,4.2773443 0,3.0117187 -1.47656,4.875 -1.46485,1.85156245 -3.87891,1.85156245 -2.69531,0 -3.98437,-2.42578125 z m -0.0469,-4.4648437 v 1.5117187 q 0,1.8046875 1.13672,3.1054688 1.13672,1.28906245 2.98828,1.28906245 1.83985,0 2.98828,-1.57031255 1.14844,-1.5820312 1.14844,-4.1484374 0,-2.2500001 -1.05469,-3.5742188 -1.05468,-1.324219 -2.8125,-1.324219 -2.09765,0 -3.24609,1.4062502 -1.14844,1.40625 -1.14844,3.3046876 z"
         style="fill:#a6a6a6"
         id="path2523" />
      <path
         d="m 983.63757,-2.1328125 h -0.0469 v 7.6523437 h -1.07813 V -12 h 1.07813 v 2.4726562 h 0.0469 q 0.64453,-1.3242192 1.83985,-2.0390622 1.20703,-0.726563 2.64843,-0.726563 2.28516,0 3.5625,1.582031 1.28907,1.570313 1.28907,4.2773443 0,3.0117187 -1.47657,4.875 -1.46484,1.85156245 -3.8789,1.85156245 -2.69531,0 -3.98438,-2.42578125 z m -0.0469,-4.4648437 v 1.5117187 q 0,1.8046875 1.13672,3.1054688 1.13672,1.28906245 2.98828,1.28906245 1.83984,0 2.98828,-1.57031255 1.14844,-1.5820312 1.14844,-4.1484374 0,-2.2500001 -1.05469,-3.5742188 -1.05469,-1.324219 -2.8125,-1.324219 -2.09766,0 -3.24609,1.4062502 -1.14844,1.40625 -1.14844,3.3046876 z"
         style="fill:#a6a6a6"
         id="path2525" />
      <path
         d="m 995.95398,0 v -17.765625 h 1.07812 V 0 Z"
         style="fill:#a6a6a6"
         id="path2527" />
      <path
         d="m 1001.4032,-15.023438 q -0.3516,0 -0.6211,-0.257812 -0.2695,-0.257813 -0.2695,-0.65625 0,-0.386719 0.2695,-0.621094 0.2813,-0.246093 0.6211,-0.246093 0.3633,0 0.6328,0.234375 0.2813,0.234375 0.2813,0.632812 0,0.375 -0.2696,0.644531 -0.2695,0.269531 -0.6445,0.269531 z M 1000.8759,0 v -12 h 1.0781 V 0 Z"
         style="fill:#a6a6a6"
         id="path2529" />
      <path
         d="m 1013.5673,-0.52734375 q -1.336,0.8203125 -3.1875,0.8203125 -2.4493,0 -3.9493,-1.67578125 -1.5,-1.6875 -1.5,-4.40625 0,-2.859375 1.6875,-4.6757815 1.6875,-1.828125 4.336,-1.828125 1.3711,0 2.6601,0.5625 v 1.21875 q -1.289,-0.796875 -2.8242,-0.796875 -2.1094,0 -3.4219,1.5234377 -1.3125,1.5117188 -1.3125,3.9257813 0,2.3320312 1.1954,3.75 1.207,1.41796875 3.1757,1.41796875 1.8047,0 3.1407,-0.96093745 z"
         style="fill:#a6a6a6"
         id="path2531" />
      <path
         d="m 1023.6219,0 v -2.4023438 h -0.047 q -0.5742,1.2304688 -1.6758,1.96875005 -1.0899,0.7265625 -2.4258,0.7265625 -1.7109,0 -2.707,-0.9609375 -0.9961,-0.96093745 -0.9961,-2.42578125 0,-3.140625 4.1601,-3.796875 l 3.6914,-0.5507812 q 0,-3.8671878 -2.9062,-3.8671878 -1.9805,0 -3.8555,1.5937502 v -1.3007812 q 0.668,-0.527344 1.8047,-0.902344 1.1485,-0.375 2.1563,-0.375 1.8515,0 2.8593,1.148438 1.0196,1.1484372 1.0196,3.3398435 V 0 Z m -3.3046,-5.9765625 q -1.8868,0.2695313 -2.6485,0.8789063 -0.7617,0.5976562 -0.7617,1.9570312 0,1.0664062 0.7031,1.7578125 0.7149,0.69140625 1.9805,0.69140625 1.7344,0 2.8828,-1.27734375 1.1484,-1.2890625 1.1484,-3.3164062 v -1.171875 z"
         style="fill:#a6a6a6"
         id="path2533" />
      <path
         d="m 1033.0555,-0.1640625 q -0.8437,0.3984375 -1.582,0.3984375 -2.6601,0 -2.6601,-3.1875 v -8.0625 h -2.1563 V -12 h 2.1563 v -3.117188 q 0.2578,-0.09375 0.539,-0.1875 0.2813,-0.08203 0.5391,-0.175781 V -12 h 3.164 v 0.984375 h -3.164 v 7.921875 q 0,1.2421875 0.3867,1.8046875 0.3984,0.55078125 1.3359,0.55078125 0.668,0 1.4414,-0.43359375 z"
         style="fill:#a6a6a6"
         id="path2535" />
      <path
         d="m 1035.9618,-15.023438 q -0.3516,0 -0.6211,-0.257812 -0.2695,-0.257813 -0.2695,-0.65625 0,-0.386719 0.2695,-0.621094 0.2812,-0.246093 0.6211,-0.246093 0.3633,0 0.6328,0.234375 0.2813,0.234375 0.2813,0.632812 0,0.375 -0.2696,0.644531 -0.2695,0.269531 -0.6445,0.269531 z M 1035.4344,0 v -12 h 1.0782 V 0 Z"
         style="fill:#a6a6a6"
         id="path2537" />
      <path
         d="m 1045.1727,0.29296875 q -2.625,0 -4.1601,-1.72265625 -1.5235,-1.734375 -1.5235,-4.5 0,-2.9882813 1.5938,-4.6757815 1.6055,-1.6875 4.2187,-1.6875 2.5664,0 4.0547,1.675781 1.4883,1.6757817 1.4883,4.6406255 0,2.8007812 -1.5234,4.5351563 -1.5118,1.73437495 -4.1485,1.73437495 z m 0.082,-11.60156275 q -2.1211,0 -3.3868,1.4296877 -1.2539,1.4296875 -1.2539,3.9726563 0,2.3554687 1.2305,3.7851562 1.2305,1.42968755 3.3633,1.42968755 2.168,0 3.3398,-1.40625005 1.1719,-1.40625 1.1719,-3.9023437 0,-2.5664063 -1.1719,-3.9375 -1.1601,-1.371094 -3.2929,-1.371094 z"
         style="fill:#a6a6a6"
         id="path2539" />
      <path
         d="m 1061.9774,0 v -6.984375 q 0,-4.324219 -3.1172,-4.324219 -1.7343,0 -2.8476,1.277344 -1.1133,1.265625 -1.1133,3.140625 V 0 h -1.0781 v -12 h 1.0781 v 2.1796875 h 0.047 q 1.3125,-2.4726565 4.1015,-2.4726565 1.9453,0 2.9766,1.300781 1.0312,1.289063 1.0312,3.6914068 V 0 Z"
         style="fill:#a6a6a6"
         id="path2541" />
      <path
         d="m -60.566185,69.632812 q -1.359375,0.5625 -2.835937,0.5625 -2.296875,0 -3.75,-1.539062 -1.445313,-1.546875 -1.445313,-4.03125 0,-2.726563 1.570313,-4.367188 1.570312,-1.648437 3.992187,-1.648437 1.289063,0 2.46875,0.414062 v 0.820313 q -1.179687,-0.53125 -2.484375,-0.53125 -2.109375,0 -3.429687,1.429687 -1.320313,1.429688 -1.320313,3.804688 0,2.289062 1.257813,3.617187 1.265625,1.320313 3.203125,1.320313 1.546875,0 2.773437,-0.601563 z"
         id="path2543" />
      <path
         d="m -54.45681,62.75 q -0.359375,-0.257813 -0.84375,-0.257813 -0.945312,0 -1.585937,0.976563 -0.640625,0.976562 -0.640625,2.773437 V 70 h -0.703125 v -8 h 0.703125 v 1.773437 h 0.03125 q 0.273437,-0.914062 0.867187,-1.421875 0.59375,-0.507812 1.375,-0.507812 0.445313,0 0.796875,0.140625 z"
         id="path2545" />
      <path
         d="m -53.097435,66.03125 q 0,1.648437 0.757813,2.578125 0.765625,0.929687 2.09375,0.929687 1.34375,0 2.625,-0.992187 V 69.3125 q -1.242188,0.882812 -2.773438,0.882812 -1.546875,0 -2.5,-1.109375 -0.953125,-1.109375 -0.953125,-3.132812 0,-1.75 0.992188,-2.945313 1,-1.203125 2.59375,-1.203125 1.492187,0 2.289062,1.046875 0.796875,1.046875 0.796875,2.859375 V 66.03125 Z M -47.92556,65.375 q -0.04687,-1.382813 -0.664062,-2.148438 -0.617188,-0.765625 -1.703125,-0.765625 -1.125,0 -1.867188,0.757813 -0.734375,0.75 -0.90625,2.15625 z"
         id="path2547" />
      <path
         d="m -40.409935,70 v -1.601563 h -0.03125 q -0.382812,0.820313 -1.117187,1.3125 -0.726563,0.484375 -1.617188,0.484375 -1.140625,0 -1.804687,-0.640625 -0.664063,-0.640625 -0.664063,-1.617187 0,-2.09375 2.773438,-2.53125 l 2.460937,-0.367188 q 0,-2.578125 -1.9375,-2.578125 -1.320312,0 -2.570312,1.0625 V 62.65625 q 0.445312,-0.351563 1.203125,-0.601563 0.765625,-0.25 1.4375,-0.25 1.234375,0 1.90625,0.765625 0.679687,0.765625 0.679687,2.226563 V 70 Z m -2.203125,-3.984375 q -1.257812,0.179687 -1.765625,0.585937 -0.507812,0.398438 -0.507812,1.304688 0,0.710937 0.46875,1.171875 0.476562,0.460937 1.320312,0.460937 1.15625,0 1.921875,-0.851562 0.765625,-0.859375 0.765625,-2.210938 v -0.78125 z"
         id="path2549" />
      <path
         d="m -34.120872,69.890625 q -0.5625,0.265625 -1.054688,0.265625 -1.773437,0 -1.773437,-2.125 v -5.375 h -1.4375 V 62 h 1.4375 v -2.078125 q 0.171875,-0.0625 0.359375,-0.125 0.1875,-0.05469 0.359375,-0.117188 V 62 h 2.109375 v 0.65625 h -2.109375 v 5.28125 q 0,0.828125 0.257812,1.203125 0.265625,0.367187 0.890625,0.367187 0.445313,0 0.960938,-0.289062 z"
         id="path2551" />
      <path
         d="m -32.36306,66.03125 q 0,1.648437 0.757813,2.578125 0.765625,0.929687 2.09375,0.929687 1.34375,0 2.625,-0.992187 V 69.3125 q -1.242188,0.882812 -2.773438,0.882812 -1.546875,0 -2.5,-1.109375 -0.953125,-1.109375 -0.953125,-3.132812 0,-1.75 0.992188,-2.945313 1,-1.203125 2.59375,-1.203125 1.492187,0 2.289062,1.046875 0.796875,1.046875 0.796875,2.859375 v 0.320313 z m 5.171875,-0.65625 q -0.04687,-1.382813 -0.664062,-2.148438 -0.617188,-0.765625 -1.703125,-0.765625 -1.125,0 -1.867188,0.757813 -0.734375,0.75 -0.90625,2.15625 z"
         id="path2553" />
      <path
         d="M -19.998199,70 V 58.796875 h 2.804687 q 2.789063,0 4.242188,1.390625 1.453125,1.390625 1.453125,4.054687 0,2.5625 -1.5625,4.164063 Q -14.615387,70 -17.357574,70 Z m 0.773437,-10.492188 v 9.789063 h 1.757813 q 2.492187,0 3.828125,-1.289063 1.335937,-1.296875 1.335937,-3.734375 0,-4.765625 -5.007812,-4.765625 z"
         id="path2555" />
      <path
         d="m -6.162262,70.195312 q -1.75,0 -2.7734375,-1.148437 -1.015625,-1.15625 -1.015625,-3 0,-1.992188 1.0625,-3.117188 1.0703125,-1.125 2.8125,-1.125 1.7109375,0 2.703125,1.117188 0.9921875,1.117187 0.9921875,3.09375 0,1.867187 -1.015625,3.023437 -1.0078125,1.15625 -2.765625,1.15625 z m 0.054687,-7.734375 q -1.4140625,0 -2.2578125,0.953125 -0.8359375,0.953125 -0.8359375,2.648438 0,1.570312 0.8203125,2.523437 0.8203125,0.953125 2.2421875,0.953125 1.4453125,0 2.2265625,-0.9375 0.78125,-0.9375 0.78125,-2.601562 0,-1.710938 -0.78125,-2.625 -0.7734375,-0.914063 -2.1953125,-0.914063 z"
         id="path2557" />
      <path
         d="m 4.7830505,69.648437 q -0.890625,0.546875 -2.125,0.546875 -1.6328125,0 -2.63281246,-1.117187 -1,-1.125 -1,-2.9375 0,-1.90625 1.125,-3.117188 1.12499996,-1.21875 2.89062496,-1.21875 0.9140625,0 1.7734375,0.375 v 0.8125 q -0.859375,-0.53125 -1.8828125,-0.53125 -1.40625,0 -2.28124996,1.015625 -0.875,1.007813 -0.875,2.617188 0,1.554687 0.796875,2.5 0.80468746,0.945312 2.11718746,0.945312 1.203125,0 2.09375,-0.640625 z"
         id="path2559" />
      <path
         d="M 11.283051,70 7.4549255,66.046875 h -0.03125 V 70 h -0.71875 V 58.15625 h 0.71875 v 7.632812 h 0.03125 L 11.087738,62 h 0.929688 L 8.2205505,65.875 12.322113,70 Z"
         id="path2561" />
      <path
         d="m 13.978363,66.03125 q 0,1.648437 0.757813,2.578125 0.765625,0.929687 2.09375,0.929687 1.34375,0 2.625,-0.992187 V 69.3125 q -1.242188,0.882812 -2.773438,0.882812 -1.546875,0 -2.5,-1.109375 -0.953125,-1.109375 -0.953125,-3.132812 0,-1.75 0.992188,-2.945313 1,-1.203125 2.59375,-1.203125 1.492187,0 2.289062,1.046875 0.796875,1.046875 0.796875,2.859375 V 66.03125 Z M 19.150238,65.375 q -0.04687,-1.382813 -0.664062,-2.148438 -0.617188,-0.765625 -1.703125,-0.765625 -1.125,0 -1.867188,0.757813 -0.734375,0.75 -0.90625,2.15625 z"
         id="path2563" />
      <path
         d="m 25.658051,62.75 q -0.359375,-0.257813 -0.84375,-0.257813 -0.945313,0 -1.585938,0.976563 -0.640625,0.976562 -0.640625,2.773437 V 70 h -0.703125 v -8 h 0.703125 v 1.773437 h 0.03125 q 0.273438,-0.914062 0.867188,-1.421875 0.59375,-0.507812 1.375,-0.507812 0.445312,0 0.796875,0.140625 z"
         id="path2565" />
      <path
         d="m 31.126801,58.914062 q -0.289063,-0.226562 -0.875,-0.226562 -1.476563,0 -1.476563,1.984375 V 62 h 2.117188 v 0.65625 H 28.775238 V 70 h -0.71875 v -7.34375 h -1.4375 V 62 h 1.4375 v -1.390625 q 0,-1.265625 0.632813,-1.921875 0.640625,-0.65625 1.59375,-0.65625 0.507812,0 0.84375,0.148437 z"
         id="path2567" />
      <path
         d="m 32.392426,59.984375 q -0.234375,0 -0.414063,-0.171875 -0.179687,-0.171875 -0.179687,-0.4375 0,-0.257813 0.179687,-0.414063 0.1875,-0.164062 0.414063,-0.164062 0.242187,0 0.421875,0.15625 0.1875,0.15625 0.1875,0.421875 0,0.25 -0.179688,0.429687 -0.179687,0.179688 -0.429687,0.179688 z M 32.040863,70 v -8 h 0.71875 v 8 z"
         id="path2569" />
      <path
         d="M 35.322113,70 V 58.15625 h 0.71875 V 70 Z"
         id="path2571" />
      <path
         d="m 38.775238,66.03125 q 0,1.648437 0.757813,2.578125 0.765625,0.929687 2.09375,0.929687 1.34375,0 2.625,-0.992187 V 69.3125 q -1.242188,0.882812 -2.773438,0.882812 -1.546875,0 -2.5,-1.109375 -0.953125,-1.109375 -0.953125,-3.132812 0,-1.75 0.992188,-2.945313 1,-1.203125 2.59375,-1.203125 1.492187,0 2.289062,1.046875 0.796875,1.046875 0.796875,2.859375 V 66.03125 Z M 43.947113,65.375 q -0.04687,-1.382813 -0.664062,-2.148438 -0.617188,-0.765625 -1.703125,-0.765625 -1.125,0 -1.867188,0.757813 -0.734375,0.75 -0.90625,2.15625 z"
         id="path2573" />
      <path
         d="m 104.5022,69.601562 q -1.22657,0.59375 -3.20313,0.59375 -2.578123,0 -4.054685,-1.515625 -1.476563,-1.515625 -1.476563,-4.039062 0,-2.6875 1.65625,-4.359375 1.664063,-1.671875 4.312498,-1.671875 1.64063,0 2.76563,0.414062 v 2.429688 q -1.125,-0.671875 -2.5625,-0.671875 -1.57813,0 -2.546878,0.992187 -0.96875,0.992188 -0.96875,2.6875 0,1.625 0.914063,2.59375 0.914065,0.960938 2.460935,0.960938 1.47656,0 2.70313,-0.71875 z"
         id="path2575" />
      <path
         d="m 111.38501,64.226562 q -0.44531,-0.242187 -1.03906,-0.242187 -0.80469,0 -1.25782,0.59375 -0.45312,0.585937 -0.45312,1.601562 V 70 h -2.46875 v -8 h 2.46875 v 1.484375 h 0.0312 q 0.58594,-1.625 2.10937,-1.625 0.39063,0 0.60938,0.09375 z"
         id="path2577" />
      <path
         d="m 118.3147,66.703125 h -5.21875 q 0.125,1.742187 2.19531,1.742187 1.32031,0 2.32031,-0.625 v 1.78125 q -1.10937,0.59375 -2.88281,0.59375 -1.9375,0 -3.00781,-1.070312 -1.07032,-1.078125 -1.07032,-3 0,-1.992188 1.15625,-3.15625 1.15625,-1.164063 2.84375,-1.164063 1.75,0 2.70313,1.039063 0.96094,1.039062 0.96094,2.820312 z M 116.02563,65.1875 q 0,-1.71875 -1.39062,-1.71875 -0.59375,0 -1.03125,0.492187 -0.42969,0.492188 -0.52344,1.226563 z"
         id="path2579" />
      <path
         d="m 125.86157,70 h -2.33594 v -1.148438 h -0.0312 q -0.80468,1.34375 -2.38281,1.34375 -1.16406,0 -1.83594,-0.65625 -0.66406,-0.664062 -0.66406,-1.765625 0,-2.328125 2.75781,-2.6875 l 2.17188,-0.289062 q 0,-1.3125 -1.42188,-1.3125 -1.42968,0 -2.71875,0.851562 v -1.859375 q 0.51563,-0.265625 1.40625,-0.46875 0.89844,-0.203125 1.63282,-0.203125 3.42187,0 3.42187,3.414063 z m -2.32031,-3.25 v -0.539063 l -1.45313,0.1875 q -1.20312,0.15625 -1.20312,1.085938 0,0.421875 0.28906,0.695312 0.29688,0.265625 0.79688,0.265625 0.69531,0 1.13281,-0.476562 0.4375,-0.484375 0.4375,-1.21875 z"
         id="path2581" />
      <path
         d="m 131.94751,69.90625 q -0.54688,0.289062 -1.64844,0.289062 -2.60937,0 -2.60937,-2.710937 v -3.664063 h -1.29688 V 62 h 1.29688 v -1.726563 l 2.46093,-0.703125 V 62 h 1.79688 v 1.820312 h -1.79688 v 3.234375 q 0,1.25 0.99219,1.25 0.39063,0 0.80469,-0.226562 z"
         id="path2583" />
      <path
         d="m 139.04907,66.703125 h -5.21875 q 0.125,1.742187 2.19531,1.742187 1.32032,0 2.32032,-0.625 v 1.78125 q -1.10938,0.59375 -2.88282,0.59375 -1.9375,0 -3.00781,-1.070312 -1.07031,-1.078125 -1.07031,-3 0,-1.992188 1.15625,-3.15625 1.15625,-1.164063 2.84375,-1.164063 1.75,0 2.70312,1.039063 0.96094,1.039062 0.96094,2.820312 z M 136.76001,65.1875 q 0,-1.71875 -1.39063,-1.71875 -0.59375,0 -1.03125,0.492187 -0.42968,0.492188 -0.52343,1.226563 z"
         id="path2585" />
      <path
         d="m 154.66881,70 h -2.75 l -0.79688,-2.492188 h -3.98437 L 146.3485,70 h -2.73438 l 4.07813,-11.203125 h 2.99218 z m -4.125,-4.429688 -1.20313,-3.765625 q -0.13281,-0.421875 -0.1875,-1.007812 h -0.0625 q -0.0391,0.492187 -0.19531,0.976562 l -1.21875,3.796875 z"
         id="path2587" />
      <path
         d="m 157.13756,69.070312 h -0.0312 v 4.609375 h -2.46875 V 62 h 2.46875 v 1.203125 h 0.0312 q 0.91406,-1.398438 2.57031,-1.398438 1.55469,0 2.39844,1.070313 0.85156,1.0625 0.85156,2.898437 0,2 -0.99219,3.210938 -0.98437,1.210937 -2.625,1.210937 -1.44531,0 -2.20312,-1.125 z m -0.0703,-3.28125 v 0.640625 q 0,0.828125 0.4375,1.351563 0.4375,0.523437 1.14843,0.523437 0.84375,0 1.30469,-0.648437 0.46875,-0.65625 0.46875,-1.851563 0,-2.109375 -1.64062,-2.109375 -0.75782,0 -1.24219,0.578125 -0.47656,0.570313 -0.47656,1.515625 z"
         id="path2589" />
      <path
         d="m 166.0985,69.070312 h -0.0312 v 4.609375 H 163.5985 V 62 h 2.46875 v 1.203125 h 0.0312 q 0.91406,-1.398438 2.57031,-1.398438 1.55469,0 2.39844,1.070313 0.85156,1.0625 0.85156,2.898437 0,2 -0.99219,3.210938 -0.98437,1.210937 -2.625,1.210937 -1.44531,0 -2.20312,-1.125 z m -0.0703,-3.28125 v 0.640625 q 0,0.828125 0.4375,1.351563 0.4375,0.523437 1.14844,0.523437 0.84375,0 1.30469,-0.648437 0.46875,-0.65625 0.46875,-1.851563 0,-2.109375 -1.64063,-2.109375 -0.75781,0 -1.24218,0.578125 -0.47657,0.570313 -0.47657,1.515625 z"
         id="path2591" />
      <path
         d="M 172.80162,70 V 58.796875 h 3.96875 q 5.96875,0 5.96875,5.460937 0,2.617188 -1.63281,4.179688 Q 179.48131,70 176.77037,70 Z m 2.52344,-9.148438 v 7.101563 h 1.25 q 1.64062,0 2.57031,-0.984375 0.9375,-0.984375 0.9375,-2.679688 0,-1.601562 -0.92969,-2.515625 -0.92187,-0.921875 -2.59375,-0.921875 z"
         id="path2593" />
      <path
         d="m 190.52818,66.703125 h -5.21875 q 0.125,1.742187 2.19532,1.742187 1.32031,0 2.32031,-0.625 v 1.78125 q -1.10938,0.59375 -2.88281,0.59375 -1.9375,0 -3.00782,-1.070312 -1.07031,-1.078125 -1.07031,-3 0,-1.992188 1.15625,-3.15625 1.15625,-1.164063 2.84375,-1.164063 1.75,0 2.70313,1.039063 0.96093,1.039062 0.96093,2.820312 z M 188.23912,65.1875 q 0,-1.71875 -1.39062,-1.71875 -0.59375,0 -1.03125,0.492187 -0.42969,0.492188 -0.52344,1.226563 z"
         id="path2595" />
      <path
         d="m 196.63756,60.046875 q -0.47656,-0.1875 -0.91406,-0.1875 -1.1875,0 -1.1875,1.289062 V 62 h 1.82812 v 1.820312 H 194.536 V 70 h -2.46094 v -6.179688 h -1.34375 V 62 h 1.34375 v -0.992188 q 0,-1.367187 0.89062,-2.203125 0.89063,-0.835937 2.42188,-0.835937 0.75,0 1.25,0.15625 z"
         id="path2597" />
      <path
         d="m 195.39537,70.195312 q -0.60937,0 -1.01562,-0.375 -0.40625,-0.375 -0.40625,-0.921875 0,-0.5625 0.41406,-0.921875 0.42187,-0.359375 1.04687,-0.359375 0.63282,0 1.03125,0.367188 0.40625,0.359375 0.40625,0.914062 0,0.570313 -0.41406,0.9375 -0.40625,0.359375 -1.0625,0.359375 z"
         id="path2599" />
      <path
         d="m 199.28506,60.734375 q -0.625,0 -1.02343,-0.367188 -0.39844,-0.375 -0.39844,-0.914062 0,-0.554688 0.39844,-0.90625 0.39843,-0.351563 1.02343,-0.351563 0.63282,0 1.02344,0.351563 0.39844,0.351562 0.39844,0.90625 0,0.5625 -0.39844,0.921875 -0.39062,0.359375 -1.02344,0.359375 z m 1.21875,9.125 q 0,1.773437 -0.86718,2.835937 -0.86719,1.0625 -2.5,1.0625 -0.53907,0 -1.17969,-0.234375 v -1.9375 q 0.51562,0.289063 0.91406,0.289063 1.16406,0 1.16406,-1.828125 V 62 h 2.46875 z"
         id="path2601" />
      <path
         d="m 200.79288,69.789062 v -2 q 0.60937,0.367188 1.21093,0.546875 0.60938,0.179688 1.14844,0.179688 0.65625,0 1.03125,-0.179688 0.38281,-0.179687 0.38281,-0.546875 0,-0.234375 -0.17187,-0.390625 -0.17188,-0.15625 -0.44531,-0.273437 -0.26563,-0.117188 -0.58594,-0.210938 -0.32031,-0.09375 -0.61719,-0.210937 -0.47656,-0.179688 -0.84375,-0.382813 -0.35937,-0.210937 -0.60937,-0.484375 -0.24219,-0.273437 -0.375,-0.632812 -0.125,-0.359375 -0.125,-0.851563 0,-0.671875 0.28906,-1.15625 0.29687,-0.484375 0.78125,-0.789062 0.49219,-0.3125 1.11719,-0.453125 0.63281,-0.148438 1.3125,-0.148438 0.53125,0 1.07812,0.08594 0.54688,0.07813 1.07813,0.234375 v 1.90625 q -0.46875,-0.273438 -1.00782,-0.40625 -0.53125,-0.140625 -1.04687,-0.140625 -0.24219,0 -0.46094,0.04687 -0.21094,0.03906 -0.375,0.125 -0.16406,0.07813 -0.25781,0.210937 -0.0937,0.125 -0.0937,0.289063 0,0.21875 0.14062,0.375 0.14063,0.15625 0.36719,0.273437 0.22656,0.109375 0.5,0.203125 0.28125,0.08594 0.55469,0.179688 0.49219,0.171875 0.89062,0.375 0.39844,0.203125 0.67969,0.476562 0.28906,0.273438 0.4375,0.640625 0.15625,0.367188 0.15625,0.875 0,0.710938 -0.3125,1.21875 -0.30469,0.5 -0.82031,0.820313 -0.50781,0.3125 -1.17969,0.453125 -0.66406,0.148437 -1.38281,0.148437 -1.32031,0 -2.44531,-0.40625 z"
         id="path2603" />
      <path
         d="m 211.33975,70.195312 q -2,0 -3.14844,-1.117187 -1.14062,-1.125 -1.14062,-3.046875 0,-1.984375 1.1875,-3.101563 1.1875,-1.125 3.21094,-1.125 1.99218,0 3.125,1.125 1.13281,1.117188 1.13281,2.960938 0,1.992187 -1.17188,3.148437 -1.16406,1.15625 -3.19531,1.15625 z m 0.0625,-6.5 q -0.875,0 -1.35937,0.601563 Q 209.5585,64.898437 209.5585,66 q 0,2.304687 1.85938,2.304687 1.77343,0 1.77343,-2.367187 0,-2.242188 -1.78906,-2.242188 z"
         id="path2605" />
      <path
         d="m 224.23038,70 h -2.46094 v -4.445313 q 0,-1.859375 -1.32813,-1.859375 -0.64062,0 -1.05468,0.492188 -0.41407,0.492187 -0.41407,1.25 V 70 h -2.46875 v -8 h 2.46875 v 1.265625 h 0.0312 q 0.88282,-1.460938 2.57032,-1.460938 2.65625,0 2.65625,3.296875 z"
         id="path2607" />
      <path
         d="m 276.24792,59.507812 v 4.570313 h 4.14063 v 0.703125 h -4.14063 V 70 h -0.77343 V 58.796875 h 5.23437 v 0.710937 z"
         style="fill:#a6a6a6"
         id="path2609" />
      <path
         d="m 283.1073,59.984375 q -0.23438,0 -0.41406,-0.171875 -0.17969,-0.171875 -0.17969,-0.4375 0,-0.257813 0.17969,-0.414063 0.1875,-0.164062 0.41406,-0.164062 0.24219,0 0.42187,0.15625 0.1875,0.15625 0.1875,0.421875 0,0.25 -0.17968,0.429687 -0.17969,0.179688 -0.42969,0.179688 z M 282.75574,70 v -8 h 0.71875 v 8 z"
         style="fill:#a6a6a6"
         id="path2611" />
      <path
         d="m 291.47449,70 v -4.65625 q 0,-2.882813 -2.07813,-2.882813 -1.15625,0 -1.89844,0.851563 -0.74218,0.84375 -0.74218,2.09375 V 70 h -0.71875 v -8 h 0.71875 v 1.453125 h 0.0312 q 0.875,-1.648438 2.73437,-1.648438 1.29688,0 1.98438,0.867188 0.6875,0.859375 0.6875,2.460937 V 70 Z"
         style="fill:#a6a6a6"
         id="path2613" />
      <path
         d="m 299.38074,70 v -1.601563 h -0.0312 q -0.38282,0.820313 -1.11719,1.3125 -0.72656,0.484375 -1.61719,0.484375 -1.14062,0 -1.80469,-0.640625 -0.66406,-0.640625 -0.66406,-1.617187 0,-2.09375 2.77344,-2.53125 l 2.46094,-0.367188 q 0,-2.578125 -1.9375,-2.578125 -1.32032,0 -2.57032,1.0625 V 62.65625 q 0.44532,-0.351563 1.20313,-0.601563 0.76562,-0.25 1.4375,-0.25 1.23437,0 1.90625,0.765625 0.67969,0.765625 0.67969,2.226563 V 70 Z m -2.20313,-3.984375 q -1.25781,0.179687 -1.76562,0.585937 -0.50782,0.398438 -0.50782,1.304688 0,0.710937 0.46875,1.171875 0.47657,0.460937 1.32032,0.460937 1.15625,0 1.92187,-0.851562 0.76563,-0.859375 0.76563,-2.210938 v -0.78125 z"
         style="fill:#a6a6a6"
         id="path2615" />
      <path
         d="M 302.50574,70 V 58.15625 h 0.71875 V 70 Z"
         style="fill:#a6a6a6"
         id="path2617" />
      <path
         d="m 306.13855,59.984375 q -0.23438,0 -0.41406,-0.171875 -0.17969,-0.171875 -0.17969,-0.4375 0,-0.257813 0.17969,-0.414063 0.1875,-0.164062 0.41406,-0.164062 0.24219,0 0.42187,0.15625 0.1875,0.15625 0.1875,0.421875 0,0.25 -0.17968,0.429687 -0.17969,0.179688 -0.42969,0.179688 z M 305.78699,70 v -8 h 0.71875 v 8 z"
         style="fill:#a6a6a6"
         id="path2619" />
      <path
         d="m 309.40417,69.34375 h 5.16407 V 70 h -6.33594 v -0.273438 l 5.3125,-7.070312 h -4.92969 V 62 h 6.14844 v 0.195312 z"
         style="fill:#a6a6a6"
         id="path2621" />
      <path
         d="m 316.66199,66.03125 q 0,1.648437 0.75781,2.578125 0.76562,0.929687 2.09375,0.929687 1.34375,0 2.625,-0.992187 V 69.3125 q -1.24219,0.882812 -2.77344,0.882812 -1.54687,0 -2.5,-1.109375 -0.95312,-1.109375 -0.95312,-3.132812 0,-1.75 0.99218,-2.945313 1,-1.203125 2.59375,-1.203125 1.49219,0 2.28907,1.046875 0.79687,1.046875 0.79687,2.859375 v 0.320313 z m 5.17187,-0.65625 q -0.0469,-1.382813 -0.66406,-2.148438 -0.61719,-0.765625 -1.70313,-0.765625 -1.125,0 -1.86718,0.757813 -0.73438,0.75 -0.90625,2.15625 z"
         style="fill:#a6a6a6"
         id="path2623" />
      <path
         d="m 372.61194,58.796875 h 2.85937 q 1.36719,0 2.11719,0.710937 0.75,0.710938 0.75,2.015625 0,1.382813 -0.94531,2.3125 -0.94531,0.921875 -2.49219,1.015625 v 0.03125 q 0.74219,0.335938 1.05469,1.546875 L 376.85413,70 h -0.82032 l -0.82812,-3.375 q -0.20313,-0.828125 -0.64063,-1.21875 -0.42968,-0.398438 -1.26562,-0.398438 h -1.23438 L 371.01038,70 h -0.76563 z m 1.67969,5.507812 q 1.51562,0 2.38281,-0.734375 0.86719,-0.734375 0.86719,-2.015625 0,-0.976562 -0.57813,-1.507812 -0.57031,-0.539063 -1.60156,-0.539063 h -2.125 l -1.02344,4.796875 z"
         style="fill:#a6a6a6"
         id="path2625" />
      <path
         d="m 379.92444,66.914062 q 0,1.226563 0.625,1.929688 0.63281,0.695312 1.77344,0.695312 1,0 2.19531,-0.65625 l -0.14063,0.75 q -1.03125,0.5625 -2.16406,0.5625 -1.44531,0 -2.24219,-0.875 -0.79687,-0.882812 -0.79687,-2.46875 0,-1.390625 0.57812,-2.546875 0.58594,-1.164062 1.5625,-1.828125 0.98438,-0.671875 2.08594,-0.671875 1.02344,0 1.64844,0.515625 0.63281,0.515625 0.63281,1.40625 0,1.375 -1.35937,2.015625 -1.35157,0.640625 -4.38282,0.6875 z m 0.11719,-1.140625 q 2.5,0 3.69531,-0.460937 1.19531,-0.460938 1.19531,-1.507813 0,-1.34375 -1.64844,-1.34375 -1.16406,0 -2.0625,0.929688 -0.89062,0.921875 -1.17968,2.382812 z"
         style="fill:#a6a6a6"
         id="path2627" />
      <path
         d="m 385.95569,72.445312 q 1.09375,0.625 2.15625,0.625 1.42187,0 2.23437,-0.789062 0.82032,-0.78125 1.22657,-2.554688 l 0.50781,-2.257812 h -0.0312 q -0.80469,1.445312 -1.5625,2.085937 -0.75,0.640625 -1.63281,0.640625 -1.07813,0 -1.64844,-0.742187 -0.5625,-0.75 -0.5625,-2.140625 0,-1.539063 0.64062,-2.8125 0.64063,-1.273438 1.75782,-1.984375 1.11718,-0.710938 2.44531,-0.710938 0.39844,0 1.14062,0.07813 0.74219,0.07813 1.28125,0.210938 l -1.57031,7.34375 q -0.5,2.3125 -1.53125,3.3125 -1.02344,1.007812 -2.83594,1.007812 -1.11718,0 -2.14843,-0.554687 z m 7.11719,-9.804687 q -0.78125,-0.179688 -1.69532,-0.179688 -1.09375,0 -2.02343,0.617188 -0.92188,0.609375 -1.44532,1.695312 -0.51562,1.078125 -0.51562,2.414063 0,2.351562 1.55469,2.351562 0.69531,0 1.4375,-0.632812 0.74218,-0.640625 1.35937,-1.734375 0.61719,-1.09375 0.85156,-2.226563 z"
         style="fill:#a6a6a6"
         id="path2629" />
      <path
         d="m 396.43225,62 h 0.72656 l -1.20312,5.679687 q -0.1875,0.9375 -0.1875,1.359375 0,0.46875 0.48437,0.46875 0.33594,0 0.66407,-0.132812 l -0.13282,0.601562 q -0.38281,0.179688 -0.76562,0.179688 -0.99219,0 -0.99219,-1.0625 0,-0.367188 0.0625,-0.734375 0.0703,-0.367188 1.34375,-6.359375 z m 0.91406,-2.015625 q -0.24218,0 -0.42187,-0.171875 -0.17188,-0.171875 -0.17188,-0.4375 0,-0.25 0.17969,-0.414063 0.17969,-0.164062 0.41406,-0.164062 0.24219,0 0.42188,0.15625 0.1875,0.15625 0.1875,0.421875 0,0.25 -0.17969,0.429687 -0.17969,0.179688 -0.42969,0.179688 z"
         style="fill:#a6a6a6"
         id="path2631" />
      <path
         d="m 398.08069,68.882812 q 0.39844,0.296875 0.91406,0.476563 0.51563,0.179687 1.00781,0.179687 0.92188,0 1.42188,-0.382812 0.5,-0.382813 0.5,-1.140625 0,-0.5 -0.28125,-0.851563 -0.28125,-0.351562 -1.04688,-0.828125 -0.91406,-0.5625 -1.27343,-1.039062 -0.35938,-0.476563 -0.35938,-1.15625 0,-1 0.73438,-1.664063 0.74218,-0.671875 1.875,-0.671875 0.41406,0 0.96093,0.109375 0.54688,0.109375 0.90625,0.296875 l -0.15625,0.75 q -0.76562,-0.5 -1.78125,-0.5 -0.77343,0 -1.28125,0.4375 -0.50781,0.429688 -0.50781,1.148438 0,0.554687 0.27344,0.90625 0.28125,0.351562 1.03906,0.804687 0.89063,0.539063 1.26563,1.039063 0.38281,0.492187 0.38281,1.140625 0,1.03125 -0.74219,1.648437 -0.73437,0.609375 -1.97656,0.609375 -1.14844,0 -2.03125,-0.546875 z"
         style="fill:#a6a6a6"
         id="path2633" />
      <path
         d="m 406.151,62.65625 h -1.46094 L 404.8385,62 h 1.4375 l 0.44531,-2.078125 0.77344,-0.242188 -0.5,2.320313 h 2.14844 l -0.16406,0.65625 h -2.10938 l -1.07031,5.023437 Q 405.651,68.421875 405.651,68.75 q 0,0.375 0.15625,0.570312 0.15625,0.1875 0.53125,0.1875 0.33594,0 1.26563,-0.40625 l -0.15625,0.6875 q -0.28907,0.15625 -0.67188,0.257813 -0.38281,0.109375 -0.59375,0.109375 -1.26562,0 -1.26562,-1.359375 0,-0.492188 0.15625,-1.148438 z"
         style="fill:#a6a6a6"
         id="path2635" />
      <path
         d="m 410.06506,66.914062 q 0,1.226563 0.625,1.929688 0.63282,0.695312 1.77344,0.695312 1,0 2.19531,-0.65625 l -0.14062,0.75 q -1.03125,0.5625 -2.16406,0.5625 -1.44532,0 -2.24219,-0.875 -0.79688,-0.882812 -0.79688,-2.46875 0,-1.390625 0.57813,-2.546875 0.58594,-1.164062 1.5625,-1.828125 0.98437,-0.671875 2.08594,-0.671875 1.02343,0 1.64843,0.515625 0.63282,0.515625 0.63282,1.40625 0,1.375 -1.35938,2.015625 -1.35156,0.640625 -4.38281,0.6875 z m 0.11719,-1.140625 q 2.5,0 3.69531,-0.460937 1.19532,-0.460938 1.19532,-1.507813 0,-1.34375 -1.64844,-1.34375 -1.16406,0 -2.0625,0.929688 -0.89063,0.921875 -1.17969,2.382812 z"
         style="fill:#a6a6a6"
         id="path2637" />
      <path
         d="m 418.17444,62 h 0.71875 l -0.28906,1.890625 h 0.0312 q 0.53125,-1.0625 1.125,-1.570313 0.60156,-0.515625 1.40625,-0.515625 0.45312,0 0.85156,0.195313 l -0.13281,0.734375 h -0.0312 q -0.41407,-0.273438 -0.82813,-0.273438 -0.875,0 -1.72656,1.125 -0.84375,1.125 -1.21875,2.875 L 417.33069,70 h -0.72656 l 1.10937,-5.195313 Q 418.0885,63.101562 418.17444,62 Z"
         style="fill:#a6a6a6"
         id="path2639" />
      <path
         d="M 428.11194,62.65625 H 426.651 L 426.79944,62 h 1.4375 l 0.44531,-2.078125 0.77344,-0.242188 -0.5,2.320313 h 2.14844 l -0.16407,0.65625 h -2.10937 l -1.07031,5.023437 q -0.14844,0.742188 -0.14844,1.070313 0,0.375 0.15625,0.570312 0.15625,0.1875 0.53125,0.1875 0.33594,0 1.26562,-0.40625 l -0.15625,0.6875 q -0.28906,0.15625 -0.67187,0.257813 -0.38281,0.109375 -0.59375,0.109375 -1.26563,0 -1.26563,-1.359375 0,-0.492188 0.15625,-1.148438 z"
         style="fill:#a6a6a6"
         id="path2641" />
      <path
         d="m 434.07288,70.195312 q -1.3125,0 -2.05469,-0.820312 -0.74219,-0.820313 -0.74219,-2.273438 0,-1.453125 0.5625,-2.6875 0.57031,-1.234375 1.53906,-1.921875 0.96875,-0.6875 2.125,-0.6875 1.32813,0 2.05469,0.828125 0.72656,0.828125 0.72656,2.25 0,1.476563 -0.54687,2.703125 -0.54688,1.226563 -1.51563,1.921875 -0.96875,0.6875 -2.14843,0.6875 z m 0.0703,-0.65625 q 0.92187,0 1.70312,-0.585937 0.78125,-0.59375 1.23438,-1.648438 0.45312,-1.0625 0.45312,-2.34375 0,-1.226562 -0.55468,-1.859375 -0.55469,-0.640625 -1.5625,-0.640625 -0.90625,0 -1.69532,0.59375 -0.78906,0.59375 -1.24218,1.65625 -0.45313,1.054688 -0.45313,2.328125 0,1.179688 0.5625,1.84375 0.57031,0.65625 1.55469,0.65625 z"
         style="fill:#a6a6a6"
         id="path2643" />
      <path
         d="m 445.35413,62 h 0.71875 l -0.28907,1.890625 h 0.0312 q 0.53125,-1.0625 1.125,-1.570313 0.60157,-0.515625 1.40625,-0.515625 0.45313,0 0.85157,0.195313 l -0.13282,0.734375 h -0.0312 q -0.41406,-0.273438 -0.82812,-0.273438 -0.875,0 -1.72656,1.125 -0.84375,1.125 -1.21875,2.875 L 444.51038,70 h -0.72657 l 1.10938,-5.195313 Q 445.26819,63.101562 445.35413,62 Z"
         style="fill:#a6a6a6"
         id="path2645" />
      <path
         d="m 449.93225,66.914062 q 0,1.226563 0.625,1.929688 0.63281,0.695312 1.77344,0.695312 1,0 2.19531,-0.65625 l -0.14062,0.75 q -1.03125,0.5625 -2.16407,0.5625 -1.44531,0 -2.24218,-0.875 -0.79688,-0.882812 -0.79688,-2.46875 0,-1.390625 0.57813,-2.546875 0.58593,-1.164062 1.5625,-1.828125 0.98437,-0.671875 2.08593,-0.671875 1.02344,0 1.64844,0.515625 0.63281,0.515625 0.63281,1.40625 0,1.375 -1.35937,2.015625 -1.35156,0.640625 -4.38281,0.6875 z m 0.11719,-1.140625 q 2.5,0 3.69531,-0.460937 1.19531,-0.460938 1.19531,-1.507813 0,-1.34375 -1.64843,-1.34375 -1.16407,0 -2.0625,0.929688 -0.89063,0.921875 -1.17969,2.382812 z"
         style="fill:#a6a6a6"
         id="path2647" />
      <path
         d="m 455.9635,72.445312 q 1.09375,0.625 2.15625,0.625 1.42188,0 2.23438,-0.789062 0.82031,-0.78125 1.22656,-2.554688 l 0.50781,-2.257812 h -0.0312 q -0.80469,1.445312 -1.5625,2.085937 -0.75,0.640625 -1.63281,0.640625 -1.07813,0 -1.64844,-0.742187 -0.5625,-0.75 -0.5625,-2.140625 0,-1.539063 0.64063,-2.8125 0.64062,-1.273438 1.75781,-1.984375 1.11719,-0.710938 2.44531,-0.710938 0.39844,0 1.14063,0.07813 0.74218,0.07813 1.28125,0.210938 l -1.57032,7.34375 q -0.5,2.3125 -1.53125,3.3125 -1.02343,1.007812 -2.83593,1.007812 -1.11719,0 -2.14844,-0.554687 z m 7.11719,-9.804687 q -0.78125,-0.179688 -1.69531,-0.179688 -1.09375,0 -2.02344,0.617188 -0.92188,0.609375 -1.44531,1.695312 -0.51563,1.078125 -0.51563,2.414063 0,2.351562 1.55469,2.351562 0.69531,0 1.4375,-0.632812 0.74219,-0.640625 1.35937,-1.734375 0.61719,-1.09375 0.85157,-2.226563 z"
         style="fill:#a6a6a6"
         id="path2649" />
      <path
         d="m 466.44006,62 h 0.72657 l -1.20313,5.679687 q -0.1875,0.9375 -0.1875,1.359375 0,0.46875 0.48438,0.46875 0.33593,0 0.66406,-0.132812 l -0.13281,0.601562 q -0.38282,0.179688 -0.76563,0.179688 -0.99219,0 -0.99219,-1.0625 0,-0.367188 0.0625,-0.734375 0.0703,-0.367188 1.34375,-6.359375 z m 0.91407,-2.015625 q -0.24219,0 -0.42188,-0.171875 -0.17187,-0.171875 -0.17187,-0.4375 0,-0.25 0.17968,-0.414063 0.17969,-0.164062 0.41407,-0.164062 0.24218,0 0.42187,0.15625 0.1875,0.15625 0.1875,0.421875 0,0.25 -0.17969,0.429687 -0.17968,0.179688 -0.42968,0.179688 z"
         style="fill:#a6a6a6"
         id="path2651" />
      <path
         d="m 468.0885,68.882812 q 0.39844,0.296875 0.91406,0.476563 0.51563,0.179687 1.00782,0.179687 0.92187,0 1.42187,-0.382812 0.5,-0.382813 0.5,-1.140625 0,-0.5 -0.28125,-0.851563 -0.28125,-0.351562 -1.04687,-0.828125 -0.91407,-0.5625 -1.27344,-1.039062 -0.35938,-0.476563 -0.35938,-1.15625 0,-1 0.73438,-1.664063 0.74219,-0.671875 1.875,-0.671875 0.41406,0 0.96094,0.109375 0.54687,0.109375 0.90625,0.296875 l -0.15625,0.75 q -0.76563,-0.5 -1.78125,-0.5 -0.77344,0 -1.28125,0.4375 -0.50782,0.429688 -0.50782,1.148438 0,0.554687 0.27344,0.90625 0.28125,0.351562 1.03906,0.804687 0.89063,0.539063 1.26563,1.039063 0.38281,0.492187 0.38281,1.140625 0,1.03125 -0.74219,1.648437 -0.73437,0.609375 -1.97656,0.609375 -1.14844,0 -2.03125,-0.546875 z"
         style="fill:#a6a6a6"
         id="path2653" />
      <path
         d="m 476.15881,62.65625 h -1.46093 L 474.84631,62 h 1.4375 l 0.44532,-2.078125 0.77343,-0.242188 -0.5,2.320313 h 2.14844 l -0.16406,0.65625 h -2.10938 l -1.07031,5.023437 q -0.14844,0.742188 -0.14844,1.070313 0,0.375 0.15625,0.570312 0.15625,0.1875 0.53125,0.1875 0.33594,0 1.26563,-0.40625 l -0.15625,0.6875 q -0.28906,0.15625 -0.67188,0.257813 -0.38281,0.109375 -0.59375,0.109375 -1.26562,0 -1.26562,-1.359375 0,-0.492188 0.15625,-1.148438 z"
         style="fill:#a6a6a6"
         id="path2655" />
      <path
         d="m 480.7135,62 h 0.71875 l -0.28906,1.890625 h 0.0312 q 0.53125,-1.0625 1.125,-1.570313 0.60156,-0.515625 1.40625,-0.515625 0.45312,0 0.85156,0.195313 l -0.13281,0.734375 h -0.0312 q -0.41406,-0.273438 -0.82813,-0.273438 -0.875,0 -1.72656,1.125 -0.84375,1.125 -1.21875,2.875 L 479.86975,70 h -0.72656 l 1.10937,-5.195313 Q 480.62756,63.101562 480.7135,62 Z"
         style="fill:#a6a6a6"
         id="path2657" />
      <path
         d="m 483.276,72.898437 q 0.24219,0.140625 0.57031,0.140625 0.53907,0 0.99219,-0.320312 0.45313,-0.320313 0.97656,-1.148438 L 486.86975,69.890625 485.4635,62 h 0.73438 l 1.14062,6.476562 0.0625,0.59375 h 0.0312 L 487.51038,68.9375 491.73694,62 h 0.84375 l -5.89844,9.484375 q -0.80469,1.289062 -1.42187,1.78125 -0.60938,0.492187 -1.46094,0.492187 -0.44531,0 -0.6875,-0.125 z"
         style="fill:#a6a6a6"
         id="path2659" />
      <path
         d="M 539.49896,65.507812 V 70 h -0.77344 V 58.796875 h 2.70313 q 1.72656,0 2.64062,0.804687 0.91407,0.796875 0.91407,2.335938 0,1.5625 -1.02344,2.570312 -1.01563,1 -2.85156,1 z m 0,-6 v 5.289063 h 1.59375 q 1.51563,0 2.30469,-0.71875 0.78906,-0.726563 0.78906,-2.046875 0,-2.523438 -2.89844,-2.523438 z"
         style="fill:#a6a6a6"
         id="path2661" />
      <path
         d="m 552.55365,70 v -1.453125 h -0.0312 q -0.83594,1.648437 -2.57813,1.648437 -2.83593,0 -2.83593,-3.570312 V 62 h 0.72656 v 4.445312 q 0,1.625 0.53125,2.359375 0.53906,0.734375 1.6875,0.734375 1.11719,0 1.80469,-0.820312 0.69531,-0.820313 0.69531,-2.1875 V 62 h 0.71875 v 8 z"
         style="fill:#a6a6a6"
         id="path2663" />
      <path
         d="M 555.42084,69.648437 V 68.78125 q 0.40625,0.351562 0.98437,0.554687 0.57813,0.203125 1,0.203125 1.88281,0 1.88281,-1.539062 0,-0.53125 -0.41406,-0.90625 -0.41406,-0.375 -1.34375,-0.773438 -1.14844,-0.5 -1.61719,-1.03125 -0.46093,-0.539062 -0.46093,-1.304687 0,-0.976563 0.74218,-1.578125 0.75,-0.601563 1.84375,-0.601563 1.03125,0 1.76563,0.421875 v 0.8125 q -0.89063,-0.578125 -1.84375,-0.578125 -0.78906,0 -1.27344,0.414063 -0.48437,0.40625 -0.48437,1.0625 0,0.570312 0.30468,0.929687 0.30469,0.351563 1.34375,0.8125 1.25,0.5625 1.71875,1.046875 0.46875,0.476563 0.46875,1.273438 0,0.953125 -0.71875,1.578125 -0.71093,0.617187 -1.96875,0.617187 -1.15625,0 -1.92968,-0.546875 z"
         style="fill:#a6a6a6"
         id="path2665" />
      <path
         d="m 567.48334,70 v -4.796875 q 0,-1.421875 -0.51563,-2.078125 -0.51562,-0.664063 -1.60937,-0.664063 -1.03125,0 -1.8125,0.804688 -0.78125,0.804687 -0.78125,2.304687 V 70 h -0.71875 V 58.15625 h 0.71875 v 5.28125 h 0.0312 q 0.94531,-1.632813 2.75,-1.632813 1.29687,0 1.97656,0.835938 0.67969,0.835937 0.67969,2.398437 V 70 Z"
         style="fill:#a6a6a6"
         id="path2667" />
      <path
         d="m 575.34271,59.984375 q -0.23437,0 -0.41406,-0.171875 -0.17969,-0.171875 -0.17969,-0.4375 0,-0.257813 0.17969,-0.414063 0.1875,-0.164062 0.41406,-0.164062 0.24219,0 0.42188,0.15625 0.1875,0.15625 0.1875,0.421875 0,0.25 -0.17969,0.429687 -0.17969,0.179688 -0.42969,0.179688 z M 574.99115,70 v -8 h 0.71875 v 8 z"
         style="fill:#a6a6a6"
         id="path2669" />
      <path
         d="m 588.30365,70 v -4.8125 q 0,-1.507813 -0.47656,-2.117188 -0.46875,-0.609375 -1.49219,-0.609375 -0.94531,0 -1.63281,0.8125 -0.6875,0.8125 -0.6875,2.039063 V 70 h -0.71875 v -4.867188 q 0,-2.671875 -2.03125,-2.671875 -0.97657,0 -1.625,0.820313 -0.64844,0.8125 -0.64844,2.109375 V 70 h -0.71875 v -8 h 0.71875 v 1.328125 h 0.0312 q 0.83594,-1.523438 2.44531,-1.523438 0.875,0 1.49219,0.507813 0.625,0.5 0.84375,1.320312 0.375,-0.867187 1.07031,-1.34375 0.70313,-0.484375 1.52344,-0.484375 2.625,0 2.625,3.25 V 70 Z"
         style="fill:#a6a6a6"
         id="path2671" />
      <path
         d="m 596.20209,70 v -1.601563 h -0.0312 q -0.38282,0.820313 -1.11719,1.3125 -0.72656,0.484375 -1.61719,0.484375 -1.14062,0 -1.80469,-0.640625 -0.66406,-0.640625 -0.66406,-1.617187 0,-2.09375 2.77344,-2.53125 l 2.46094,-0.367188 q 0,-2.578125 -1.9375,-2.578125 -1.32032,0 -2.57032,1.0625 V 62.65625 q 0.44532,-0.351563 1.20313,-0.601563 0.76562,-0.25 1.4375,-0.25 1.23437,0 1.90625,0.765625 0.67969,0.765625 0.67969,2.226563 V 70 Z m -2.20313,-3.984375 q -1.25781,0.179687 -1.76562,0.585937 -0.50782,0.398438 -0.50782,1.304688 0,0.710937 0.46875,1.171875 0.47657,0.460937 1.32032,0.460937 1.15625,0 1.92187,-0.851562 0.76563,-0.859375 0.76563,-2.210938 v -0.78125 z"
         style="fill:#a6a6a6"
         id="path2673" />
      <path
         d="m 605.72552,69.40625 q 0,2.257812 -0.98437,3.304687 -0.98438,1.046875 -3.0625,1.046875 -1.15625,0 -2.38281,-0.609375 v -0.75 q 1.26562,0.703125 2.39843,0.703125 3.3125,0 3.3125,-3.5 V 68.5625 h -0.0312 q -0.94531,1.632812 -2.88281,1.632812 -1.47656,0 -2.41406,-1.070312 -0.92969,-1.070313 -0.92969,-2.984375 0,-1.914063 1.00781,-3.125 1.00782,-1.210938 2.65625,-1.210938 1.76563,0 2.5625,1.460938 h 0.0312 V 62 h 0.71875 z m -0.71875,-4.335938 q 0,-1.0625 -0.71875,-1.835937 -0.71093,-0.773438 -1.85937,-0.773438 -1.32031,0 -2.125,0.992188 -0.80469,0.992187 -0.80469,2.625 0,1.640625 0.73438,2.554687 0.74218,0.90625 1.95312,0.90625 1.28906,0 2.05469,-0.835937 0.76562,-0.835938 0.76562,-2.046875 z"
         style="fill:#a6a6a6"
         id="path2675" />
      <path
         d="m 608.4599,66.03125 q 0,1.648437 0.75781,2.578125 0.76563,0.929687 2.09375,0.929687 1.34375,0 2.625,-0.992187 V 69.3125 q -1.24219,0.882812 -2.77344,0.882812 -1.54687,0 -2.5,-1.109375 -0.95312,-1.109375 -0.95312,-3.132812 0,-1.75 0.99219,-2.945313 1,-1.203125 2.59375,-1.203125 1.49218,0 2.28906,1.046875 0.79687,1.046875 0.79687,2.859375 v 0.320313 z m 5.17187,-0.65625 q -0.0469,-1.382813 -0.66406,-2.148438 -0.61719,-0.765625 -1.70312,-0.765625 -1.125,0 -1.86719,0.757813 -0.73438,0.75 -0.90625,2.15625 z"
         style="fill:#a6a6a6"
         id="path2677" />
      <path
         d="M 661.94293,65.507812 V 70 h -0.77344 V 58.796875 h 2.70313 q 1.72656,0 2.64062,0.804687 0.91407,0.796875 0.91407,2.335938 0,1.5625 -1.02344,2.570312 -1.01563,1 -2.85156,1 z m 0,-6 v 5.289063 h 1.59375 q 1.51563,0 2.30469,-0.71875 0.78906,-0.726563 0.78906,-2.046875 0,-2.523438 -2.89844,-2.523438 z"
         style="fill:#a6a6a6"
         id="path2679" />
      <path
         d="m 674.99762,70 v -1.453125 h -0.0312 q -0.83594,1.648437 -2.57813,1.648437 -2.83593,0 -2.83593,-3.570312 V 62 h 0.72656 v 4.445312 q 0,1.625 0.53125,2.359375 0.53906,0.734375 1.6875,0.734375 1.11719,0 1.80469,-0.820312 0.69531,-0.820313 0.69531,-2.1875 V 62 h 0.71875 v 8 z"
         style="fill:#a6a6a6"
         id="path2681" />
      <path
         d="M 678.27887,70 V 58.15625 h 0.71875 V 70 Z"
         style="fill:#a6a6a6"
         id="path2683" />
      <path
         d="M 681.56012,70 V 58.15625 h 0.71875 V 70 Z"
         style="fill:#a6a6a6"
         id="path2685" />
      <path
         d="m 689.57574,59.984375 q -0.23437,0 -0.41406,-0.171875 -0.17969,-0.171875 -0.17969,-0.4375 0,-0.257813 0.17969,-0.414063 0.1875,-0.164062 0.41406,-0.164062 0.24219,0 0.42188,0.15625 0.1875,0.15625 0.1875,0.421875 0,0.25 -0.17969,0.429687 -0.17969,0.179688 -0.42969,0.179688 z M 689.22418,70 v -8 h 0.71875 v 8 z"
         style="fill:#a6a6a6"
         id="path2687" />
      <path
         d="m 702.53668,70 v -4.8125 q 0,-1.507813 -0.47656,-2.117188 -0.46875,-0.609375 -1.49219,-0.609375 -0.94531,0 -1.63281,0.8125 -0.6875,0.8125 -0.6875,2.039063 V 70 h -0.71875 v -4.867188 q 0,-2.671875 -2.03125,-2.671875 -0.97656,0 -1.625,0.820313 -0.64844,0.8125 -0.64844,2.109375 V 70 h -0.71875 v -8 h 0.71875 v 1.328125 h 0.0312 q 0.83594,-1.523438 2.44531,-1.523438 0.875,0 1.49219,0.507813 0.625,0.5 0.84375,1.320312 0.375,-0.867187 1.07031,-1.34375 0.70313,-0.484375 1.52344,-0.484375 2.625,0 2.625,3.25 V 70 Z"
         style="fill:#a6a6a6"
         id="path2689" />
      <path
         d="m 710.43512,70 v -1.601563 h -0.0312 q -0.38281,0.820313 -1.11719,1.3125 -0.72656,0.484375 -1.61719,0.484375 -1.14062,0 -1.80468,-0.640625 -0.66407,-0.640625 -0.66407,-1.617187 0,-2.09375 2.77344,-2.53125 l 2.46094,-0.367188 q 0,-2.578125 -1.9375,-2.578125 -1.32031,0 -2.57031,1.0625 V 62.65625 q 0.44531,-0.351563 1.20312,-0.601563 0.76563,-0.25 1.4375,-0.25 1.23438,0 1.90625,0.765625 0.67969,0.765625 0.67969,2.226563 V 70 Z m -2.20313,-3.984375 q -1.25781,0.179687 -1.76562,0.585937 -0.50781,0.398438 -0.50781,1.304688 0,0.710937 0.46875,1.171875 0.47656,0.460937 1.32031,0.460937 1.15625,0 1.92187,-0.851562 0.76563,-0.859375 0.76563,-2.210938 v -0.78125 z"
         style="fill:#a6a6a6"
         id="path2691" />
      <path
         d="m 719.95856,69.40625 q 0,2.257812 -0.98438,3.304687 -0.98437,1.046875 -3.0625,1.046875 -1.15625,0 -2.38281,-0.609375 v -0.75 q 1.26562,0.703125 2.39844,0.703125 3.3125,0 3.3125,-3.5 V 68.5625 h -0.0312 q -0.94532,1.632812 -2.88282,1.632812 -1.47656,0 -2.41406,-1.070312 -0.92969,-1.070313 -0.92969,-2.984375 0,-1.914063 1.00782,-3.125 1.00781,-1.210938 2.65625,-1.210938 1.76562,0 2.5625,1.460938 h 0.0312 V 62 h 0.71875 z m -0.71875,-4.335938 q 0,-1.0625 -0.71875,-1.835937 -0.71094,-0.773438 -1.85938,-0.773438 -1.32031,0 -2.125,0.992188 -0.80469,0.992187 -0.80469,2.625 0,1.640625 0.73438,2.554687 0.74219,0.90625 1.95312,0.90625 1.28907,0 2.05469,-0.835937 0.76563,-0.835938 0.76563,-2.046875 z"
         style="fill:#a6a6a6"
         id="path2693" />
      <path
         d="m 722.69293,66.03125 q 0,1.648437 0.75781,2.578125 0.76563,0.929687 2.09375,0.929687 1.34375,0 2.625,-0.992187 V 69.3125 q -1.24218,0.882812 -2.77343,0.882812 -1.54688,0 -2.5,-1.109375 -0.95313,-1.109375 -0.95313,-3.132812 0,-1.75 0.99219,-2.945313 1,-1.203125 2.59375,-1.203125 1.49219,0 2.28906,1.046875 0.79688,1.046875 0.79688,2.859375 v 0.320313 z m 5.17188,-0.65625 q -0.0469,-1.382813 -0.66407,-2.148438 -0.61718,-0.765625 -1.70312,-0.765625 -1.125,0 -1.86719,0.757813 -0.73437,0.75 -0.90625,2.15625 z"
         style="fill:#a6a6a6"
         id="path2695" />
      <path
         d="m 741.76324,70 h -0.67187 l -1.74219,-6.03125 q -0.0703,-0.25 -0.125,-0.671875 h -0.0391 q -0.0156,0.179687 -0.15625,0.65625 L 737.07574,70 h -0.67187 l -2.41406,-8 h 0.79687 l 1.85938,6.382812 q 0.0703,0.25 0.10937,0.671875 h 0.0625 q 0.0156,-0.226562 0.14844,-0.671875 L 738.99762,62 h 0.49219 l 1.8125,6.382812 q 0.0625,0.226563 0.10937,0.671875 h 0.0625 q 0,-0.226562 0.13281,-0.671875 L 743.50543,62 h 0.74219 z"
         style="fill:#a6a6a6"
         id="path2697" />
      <path
         d="m 746.16168,59.984375 q -0.23437,0 -0.41406,-0.171875 -0.17969,-0.171875 -0.17969,-0.4375 0,-0.257813 0.17969,-0.414063 0.1875,-0.164062 0.41406,-0.164062 0.24219,0 0.42188,0.15625 0.1875,0.15625 0.1875,0.421875 0,0.25 -0.17969,0.429687 -0.17969,0.179688 -0.42969,0.179688 z M 745.81012,70 v -8 h 0.71875 v 8 z"
         style="fill:#a6a6a6"
         id="path2699" />
      <path
         d="m 752.25543,69.890625 q -0.5625,0.265625 -1.05469,0.265625 -1.77343,0 -1.77343,-2.125 v -5.375 h -1.4375 V 62 h 1.4375 v -2.078125 q 0.17187,-0.0625 0.35937,-0.125 0.1875,-0.05469 0.35938,-0.117188 V 62 h 2.10937 v 0.65625 h -2.10937 v 5.28125 q 0,0.828125 0.25781,1.203125 0.26562,0.367187 0.89062,0.367187 0.44532,0 0.96094,-0.289062 z"
         style="fill:#a6a6a6"
         id="path2701" />
      <path
         d="m 759.27887,70 v -4.796875 q 0,-1.421875 -0.51563,-2.078125 -0.51562,-0.664063 -1.60937,-0.664063 -1.03125,0 -1.8125,0.804688 -0.78125,0.804687 -0.78125,2.304687 V 70 h -0.71875 V 58.15625 h 0.71875 v 5.28125 h 0.0312 q 0.94531,-1.632813 2.75,-1.632813 1.29687,0 1.97656,0.835938 0.67969,0.835937 0.67969,2.398437 V 70 Z"
         style="fill:#a6a6a6"
         id="path2703" />
      <path
         d="M 767.71637,65.507812 V 70 h -0.77344 V 58.796875 h 2.70313 q 1.72656,0 2.64062,0.804687 0.91406,0.796875 0.91406,2.335938 0,1.5625 -1.02343,2.570312 -1.01563,1 -2.85157,1 z m 0,-6 v 5.289063 h 1.59375 q 1.51562,0 2.30469,-0.71875 0.78906,-0.726563 0.78906,-2.046875 0,-2.523438 -2.89844,-2.523438 z"
         style="fill:#a6a6a6"
         id="path2705" />
      <path
         d="m 780.77106,70 v -1.453125 h -0.0312 q -0.83594,1.648437 -2.57813,1.648437 -2.83594,0 -2.83594,-3.570312 V 62 h 0.72657 v 4.445312 q 0,1.625 0.53125,2.359375 0.53906,0.734375 1.6875,0.734375 1.11718,0 1.80468,-0.820312 0.69532,-0.820313 0.69532,-2.1875 V 62 h 0.71875 v 8 z"
         style="fill:#a6a6a6"
         id="path2707" />
      <path
         d="M 783.63824,69.648437 V 68.78125 q 0.40625,0.351562 0.98438,0.554687 0.57812,0.203125 1,0.203125 1.88281,0 1.88281,-1.539062 0,-0.53125 -0.41406,-0.90625 -0.41406,-0.375 -1.34375,-0.773438 -1.14844,-0.5 -1.61719,-1.03125 -0.46094,-0.539062 -0.46094,-1.304687 0,-0.976563 0.74219,-1.578125 0.75,-0.601563 1.84375,-0.601563 1.03125,0 1.76563,0.421875 v 0.8125 q -0.89063,-0.578125 -1.84375,-0.578125 -0.78907,0 -1.27344,0.414063 -0.48438,0.40625 -0.48438,1.0625 0,0.570312 0.30469,0.929687 0.30469,0.351563 1.34375,0.8125 1.25,0.5625 1.71875,1.046875 0.46875,0.476563 0.46875,1.273438 0,0.953125 -0.71875,1.578125 -0.71094,0.617187 -1.96875,0.617187 -1.15625,0 -1.92969,-0.546875 z"
         style="fill:#a6a6a6"
         id="path2709" />
      <path
         d="m 795.70074,70 v -4.796875 q 0,-1.421875 -0.51562,-2.078125 -0.51563,-0.664063 -1.60938,-0.664063 -1.03125,0 -1.8125,0.804688 -0.78125,0.804687 -0.78125,2.304687 V 70 h -0.71875 V 58.15625 h 0.71875 v 5.28125 h 0.0312 q 0.94532,-1.632813 2.75,-1.632813 1.29688,0 1.97657,0.835938 0.67968,0.835937 0.67968,2.398437 V 70 Z"
         style="fill:#a6a6a6"
         id="path2711" />
      <path
         d="m 692.59729,88.890625 q -0.5625,0.265625 -1.05469,0.265625 -1.77343,0 -1.77343,-2.125 v -5.375 h -1.4375 V 81 h 1.4375 v -2.078125 q 0.17187,-0.0625 0.35937,-0.125 0.1875,-0.05469 0.35938,-0.117188 V 81 h 2.10937 v 0.65625 h -2.10937 v 5.28125 q 0,0.828125 0.25781,1.203125 0.26562,0.367187 0.89062,0.367187 0.44532,0 0.96094,-0.289062 z"
         style="fill:#a6a6a6"
         id="path2713" />
      <path
         d="m 697.39417,89.195312 q -1.75,0 -2.77344,-1.148437 -1.01563,-1.15625 -1.01563,-3 0,-1.992188 1.0625,-3.117188 1.07032,-1.125 2.8125,-1.125 1.71094,0 2.70313,1.117188 0.99219,1.117187 0.99219,3.09375 0,1.867187 -1.01563,3.023437 -1.00781,1.15625 -2.76562,1.15625 z m 0.0547,-7.734375 q -1.41406,0 -2.25781,0.953125 -0.83594,0.953125 -0.83594,2.648438 0,1.570312 0.82032,2.523437 0.82031,0.953125 2.24218,0.953125 1.44532,0 2.22657,-0.9375 0.78125,-0.9375 0.78125,-2.601562 0,-1.710938 -0.78125,-2.625 -0.77344,-0.914063 -2.19532,-0.914063 z"
         style="fill:#a6a6a6"
         id="path2715" />
      <path
         d="m 715.14417,88.632812 q -1.35938,0.5625 -2.83594,0.5625 -2.29688,0 -3.75,-1.539062 -1.44531,-1.546875 -1.44531,-4.03125 0,-2.726563 1.57031,-4.367188 1.57031,-1.648437 3.99219,-1.648437 1.28906,0 2.46875,0.414062 v 0.820313 q -1.17969,-0.53125 -2.48438,-0.53125 -2.10937,0 -3.42969,1.429687 -1.32031,1.429688 -1.32031,3.804688 0,2.289062 1.25781,3.617187 1.26563,1.320313 3.20313,1.320313 1.54687,0 2.77344,-0.601563 z"
         style="fill:#a6a6a6"
         id="path2717" />
      <path
         d="m 720.69104,89.195312 q -1.75,0 -2.77344,-1.148437 -1.01562,-1.15625 -1.01562,-3 0,-1.992188 1.0625,-3.117188 1.07031,-1.125 2.8125,-1.125 1.71094,0 2.70312,1.117188 0.99219,1.117187 0.99219,3.09375 0,1.867187 -1.01562,3.023437 -1.00782,1.15625 -2.76563,1.15625 z m 0.0547,-7.734375 q -1.41406,0 -2.25781,0.953125 -0.83594,0.953125 -0.83594,2.648438 0,1.570312 0.82031,2.523437 0.82031,0.953125 2.24219,0.953125 1.44531,0 2.22656,-0.9375 0.78125,-0.9375 0.78125,-2.601562 0,-1.710938 -0.78125,-2.625 -0.77344,-0.914063 -2.19531,-0.914063 z"
         style="fill:#a6a6a6"
         id="path2719" />
      <path
         d="m 736.48792,89 v -4.8125 q 0,-1.507813 -0.47657,-2.117188 -0.46875,-0.609375 -1.49218,-0.609375 -0.94532,0 -1.63282,0.8125 -0.6875,0.8125 -0.6875,2.039063 V 89 h -0.71875 v -4.867188 q 0,-2.671875 -2.03125,-2.671875 -0.97656,0 -1.625,0.820313 -0.64843,0.8125 -0.64843,2.109375 V 89 h -0.71875 v -8 h 0.71875 v 1.328125 h 0.0312 q 0.83593,-1.523438 2.44531,-1.523438 0.875,0 1.49219,0.507813 0.625,0.5 0.84375,1.320312 0.375,-0.867187 1.07031,-1.34375 0.70312,-0.484375 1.52344,-0.484375 2.625,0 2.625,3.25 V 89 Z"
         style="fill:#a6a6a6"
         id="path2721" />
      <path
         d="m 740.3551,87.578125 h -0.0312 v 5.101562 H 739.6051 V 81 h 0.71875 v 1.648437 h 0.0312 q 0.42969,-0.882812 1.22657,-1.359375 0.80468,-0.484375 1.76562,-0.484375 1.52344,0 2.375,1.054688 0.85938,1.046875 0.85938,2.851562 0,2.007813 -0.98438,3.25 -0.97656,1.234375 -2.58594,1.234375 -1.79687,0 -2.65625,-1.617187 z m -0.0312,-2.976563 v 1.007813 q 0,1.203125 0.75782,2.070312 0.75781,0.859375 1.99218,0.859375 1.22657,0 1.99219,-1.046875 0.76563,-1.054687 0.76563,-2.765625 0,-1.5 -0.70313,-2.382812 -0.70312,-0.882813 -1.875,-0.882813 -1.39844,0 -2.16406,0.9375 -0.76563,0.9375 -0.76563,2.203125 z"
         style="fill:#a6a6a6"
         id="path2723" />
      <path
         d="m 753.84729,89 v -1.453125 h -0.0312 q -0.83594,1.648437 -2.57812,1.648437 -2.83594,0 -2.83594,-3.570312 V 81 h 0.72656 v 4.445312 q 0,1.625 0.53125,2.359375 0.53906,0.734375 1.6875,0.734375 1.11719,0 1.80469,-0.820312 0.69531,-0.820313 0.69531,-2.1875 V 81 h 0.71875 v 8 z"
         style="fill:#a6a6a6"
         id="path2725" />
      <path
         d="m 760.2926,88.890625 q -0.5625,0.265625 -1.05468,0.265625 -1.77344,0 -1.77344,-2.125 v -5.375 h -1.4375 V 81 h 1.4375 v -2.078125 q 0.17187,-0.0625 0.35937,-0.125 0.1875,-0.05469 0.35938,-0.117188 V 81 h 2.10937 v 0.65625 h -2.10937 v 5.28125 q 0,0.828125 0.25781,1.203125 0.26563,0.367187 0.89063,0.367187 0.44531,0 0.96093,-0.289062 z"
         style="fill:#a6a6a6"
         id="path2727" />
      <path
         d="m 762.05042,85.03125 q 0,1.648437 0.75781,2.578125 0.76562,0.929687 2.09375,0.929687 1.34375,0 2.625,-0.992187 V 88.3125 q -1.24219,0.882812 -2.77344,0.882812 -1.54687,0 -2.5,-1.109375 -0.95312,-1.109375 -0.95312,-3.132812 0,-1.75 0.99218,-2.945313 1,-1.203125 2.59375,-1.203125 1.49219,0 2.28907,1.046875 0.79687,1.046875 0.79687,2.859375 v 0.320313 z m 5.17187,-0.65625 q -0.0469,-1.382813 -0.66406,-2.148438 -0.61719,-0.765625 -1.70313,-0.765625 -1.125,0 -1.86718,0.757813 -0.73438,0.75 -0.90625,2.15625 z"
         style="fill:#a6a6a6"
         id="path2729" />
      <path
         d="m 851.10486,70 -1.49219,-3.28125 q -0.46094,-1.015625 -0.92187,-1.359375 -0.46094,-0.351563 -1.15625,-0.351563 h -1.39063 V 70 h -0.77344 V 58.796875 h 3.10938 q 1.48437,0 2.32812,0.804687 0.85157,0.796875 0.85157,2.109375 0,1.210938 -0.69532,2.023438 -0.69531,0.8125 -1.94531,1.046875 v 0.03125 q 0.66406,0.265625 1.29688,1.617187 L 851.97986,70 Z m -4.96094,-10.492188 v 4.796875 h 1.92969 q 1.28125,0 2.03125,-0.671875 0.75781,-0.671875 0.75781,-1.84375 0,-1.070312 -0.67969,-1.671875 -0.67968,-0.609375 -1.94531,-0.609375 z"
         style="fill:#a6a6a6"
         id="path2731" />
      <path
         d="m 859.3783,70 v -1.453125 h -0.0312 q -0.83594,1.648437 -2.57813,1.648437 -2.83594,0 -2.83594,-3.570312 V 62 h 0.72657 v 4.445312 q 0,1.625 0.53125,2.359375 0.53906,0.734375 1.6875,0.734375 1.11718,0 1.80468,-0.820312 0.69532,-0.820313 0.69532,-2.1875 V 62 h 0.71875 v 8 z"
         style="fill:#a6a6a6"
         id="path2733" />
      <path
         d="m 868.09705,70 v -4.65625 q 0,-2.882813 -2.07813,-2.882813 -1.15625,0 -1.89844,0.851563 -0.74218,0.84375 -0.74218,2.09375 V 70 h -0.71875 v -8 h 0.71875 v 1.453125 h 0.0312 q 0.875,-1.648438 2.73437,-1.648438 1.29688,0 1.98438,0.867188 0.6875,0.859375 0.6875,2.460937 V 70 Z"
         style="fill:#a6a6a6"
         id="path2735" />
      <path
         d="m 880.38611,70 v -1.601563 h -0.0312 q -0.38281,0.820313 -1.11719,1.3125 -0.72656,0.484375 -1.61719,0.484375 -1.14062,0 -1.80468,-0.640625 -0.66407,-0.640625 -0.66407,-1.617187 0,-2.09375 2.77344,-2.53125 l 2.46094,-0.367188 q 0,-2.578125 -1.9375,-2.578125 -1.32031,0 -2.57031,1.0625 V 62.65625 q 0.44531,-0.351563 1.20312,-0.601563 0.76563,-0.25 1.4375,-0.25 1.23438,0 1.90625,0.765625 0.67969,0.765625 0.67969,2.226563 V 70 Z m -2.20313,-3.984375 q -1.25781,0.179687 -1.76562,0.585937 -0.50781,0.398438 -0.50781,1.304688 0,0.710937 0.46875,1.171875 0.47656,0.460937 1.32031,0.460937 1.15625,0 1.92187,-0.851562 0.76563,-0.859375 0.76563,-2.210938 v -0.78125 z"
         style="fill:#a6a6a6"
         id="path2737" />
      <path
         d="m 884.26111,68.578125 h -0.0312 v 5.101562 h -0.71875 V 62 h 0.71875 v 1.648437 h 0.0312 q 0.42969,-0.882812 1.22656,-1.359375 0.80469,-0.484375 1.76563,-0.484375 1.52343,0 2.375,1.054688 0.85937,1.046875 0.85937,2.851562 0,2.007813 -0.98437,3.25 -0.97657,1.234375 -2.58594,1.234375 -1.79688,0 -2.65625,-1.617187 z m -0.0312,-2.976563 v 1.007813 q 0,1.203125 0.75781,2.070312 0.75781,0.859375 1.99219,0.859375 1.22656,0 1.99219,-1.046875 0.76562,-1.054687 0.76562,-2.765625 0,-1.5 -0.70312,-2.382812 -0.70313,-0.882813 -1.875,-0.882813 -1.39844,0 -2.16407,0.9375 -0.76562,0.9375 -0.76562,2.203125 z"
         style="fill:#a6a6a6"
         id="path2739" />
      <path
         d="m 893.22205,68.578125 h -0.0312 v 5.101562 h -0.71875 V 62 h 0.71875 v 1.648437 h 0.0312 q 0.42968,-0.882812 1.22656,-1.359375 0.80469,-0.484375 1.76562,-0.484375 1.52344,0 2.375,1.054688 0.85938,1.046875 0.85938,2.851562 0,2.007813 -0.98438,3.25 -0.97656,1.234375 -2.58593,1.234375 -1.79688,0 -2.65625,-1.617187 z m -0.0312,-2.976563 v 1.007813 q 0,1.203125 0.75781,2.070312 0.75781,0.859375 1.99219,0.859375 1.22656,0 1.99218,-1.046875 0.76563,-1.054687 0.76563,-2.765625 0,-1.5 -0.70313,-2.382812 -0.70312,-0.882813 -1.875,-0.882813 -1.39843,0 -2.16406,0.9375 -0.76562,0.9375 -0.76562,2.203125 z"
         style="fill:#a6a6a6"
         id="path2741" />
      <path
         d="M 901.43298,70 V 58.15625 h 0.71875 V 70 Z"
         style="fill:#a6a6a6"
         id="path2743" />
      <path
         d="m 905.0658,59.984375 q -0.23438,0 -0.41407,-0.171875 -0.17968,-0.171875 -0.17968,-0.4375 0,-0.257813 0.17968,-0.414063 0.1875,-0.164062 0.41407,-0.164062 0.24218,0 0.42187,0.15625 0.1875,0.15625 0.1875,0.421875 0,0.25 -0.17969,0.429687 -0.17968,0.179688 -0.42968,0.179688 z M 904.71423,70 v -8 h 0.71875 v 8 z"
         style="fill:#a6a6a6"
         id="path2745" />
      <path
         d="m 913.17517,69.648437 q -0.89062,0.546875 -2.125,0.546875 -1.63281,0 -2.63281,-1.117187 -1,-1.125 -1,-2.9375 0,-1.90625 1.125,-3.117188 1.125,-1.21875 2.89062,-1.21875 0.91407,0 1.77344,0.375 v 0.8125 q -0.85937,-0.53125 -1.88281,-0.53125 -1.40625,0 -2.28125,1.015625 -0.875,1.007813 -0.875,2.617188 0,1.554687 0.79687,2.5 0.80469,0.945312 2.11719,0.945312 1.20313,0 2.09375,-0.640625 z"
         style="fill:#a6a6a6"
         id="path2747" />
      <path
         d="m 919.8783,70 v -1.601563 h -0.0312 q -0.38282,0.820313 -1.11719,1.3125 -0.72656,0.484375 -1.61719,0.484375 -1.14062,0 -1.80469,-0.640625 -0.66406,-0.640625 -0.66406,-1.617187 0,-2.09375 2.77344,-2.53125 l 2.46094,-0.367188 q 0,-2.578125 -1.9375,-2.578125 -1.32032,0 -2.57032,1.0625 V 62.65625 q 0.44532,-0.351563 1.20313,-0.601563 0.76562,-0.25 1.4375,-0.25 1.23437,0 1.90625,0.765625 0.67969,0.765625 0.67969,2.226563 V 70 Z m -2.20313,-3.984375 q -1.25781,0.179687 -1.76562,0.585937 -0.50782,0.398438 -0.50782,1.304688 0,0.710937 0.46875,1.171875 0.47657,0.460937 1.32032,0.460937 1.15625,0 1.92187,-0.851562 0.76563,-0.859375 0.76563,-2.210938 v -0.78125 z"
         style="fill:#a6a6a6"
         id="path2749" />
      <path
         d="m 926.16736,69.890625 q -0.5625,0.265625 -1.05469,0.265625 -1.77344,0 -1.77344,-2.125 v -5.375 h -1.4375 V 62 h 1.4375 v -2.078125 q 0.17188,-0.0625 0.35938,-0.125 0.1875,-0.05469 0.35937,-0.117188 V 62 h 2.10938 v 0.65625 h -2.10938 v 5.28125 q 0,0.828125 0.25782,1.203125 0.26562,0.367187 0.89062,0.367187 0.44531,0 0.96094,-0.289062 z"
         style="fill:#a6a6a6"
         id="path2751" />
      <path
         d="m 928.10486,59.984375 q -0.23438,0 -0.41406,-0.171875 -0.17969,-0.171875 -0.17969,-0.4375 0,-0.257813 0.17969,-0.414063 0.1875,-0.164062 0.41406,-0.164062 0.24219,0 0.42187,0.15625 0.1875,0.15625 0.1875,0.421875 0,0.25 -0.17968,0.429687 -0.17969,0.179688 -0.42969,0.179688 z M 927.7533,70 v -8 h 0.71875 v 8 z"
         style="fill:#a6a6a6"
         id="path2753" />
      <path
         d="m 934.24548,70.195312 q -1.75,0 -2.77343,-1.148437 -1.01563,-1.15625 -1.01563,-3 0,-1.992188 1.0625,-3.117188 1.07031,-1.125 2.8125,-1.125 1.71094,0 2.70313,1.117188 0.99218,1.117187 0.99218,3.09375 0,1.867187 -1.01562,3.023437 -1.00781,1.15625 -2.76563,1.15625 z m 0.0547,-7.734375 q -1.41406,0 -2.25781,0.953125 -0.83594,0.953125 -0.83594,2.648438 0,1.570312 0.82031,2.523437 0.82032,0.953125 2.24219,0.953125 1.44531,0 2.22656,-0.9375 0.78125,-0.9375 0.78125,-2.601562 0,-1.710938 -0.78125,-2.625 -0.77343,-0.914063 -2.19531,-0.914063 z"
         style="fill:#a6a6a6"
         id="path2755" />
      <path
         d="m 945.44861,70 v -4.65625 q 0,-2.882813 -2.07813,-2.882813 -1.15625,0 -1.89843,0.851563 -0.74219,0.84375 -0.74219,2.09375 V 70 h -0.71875 v -8 h 0.71875 v 1.453125 h 0.0312 q 0.875,-1.648438 2.73437,-1.648438 1.29688,0 1.98438,0.867188 0.6875,0.859375 0.6875,2.460937 V 70 Z"
         style="fill:#a6a6a6"
         id="path2757" />
      <path
         d="m 953.30798,59.984375 q -0.23437,0 -0.41406,-0.171875 -0.17969,-0.171875 -0.17969,-0.4375 0,-0.257813 0.17969,-0.414063 0.1875,-0.164062 0.41406,-0.164062 0.24219,0 0.42188,0.15625 0.1875,0.15625 0.1875,0.421875 0,0.25 -0.17969,0.429687 -0.17969,0.179688 -0.42969,0.179688 z M 952.95642,70 v -8 h 0.71875 v 8 z"
         style="fill:#a6a6a6"
         id="path2759" />
      <path
         d="m 961.67517,70 v -4.65625 q 0,-2.882813 -2.07812,-2.882813 -1.15625,0 -1.89844,0.851563 -0.74219,0.84375 -0.74219,2.09375 V 70 h -0.71875 v -8 h 0.71875 v 1.453125 h 0.0312 q 0.875,-1.648438 2.73438,-1.648438 1.29687,0 1.98437,0.867188 0.6875,0.859375 0.6875,2.460937 V 70 Z"
         style="fill:#a6a6a6"
         id="path2761" />
      <path
         d="m 971.57068,66.140625 q 0,4.054687 -2.8125,4.054687 -0.4375,0 -0.85156,-0.117187 v -0.75 q 0.46093,0.15625 0.86718,0.15625 1.07813,0 1.55469,-0.8125 0.47656,-0.820313 0.47656,-2.546875 v -7.328125 h 0.76563 z"
         style="fill:#a6a6a6"
         id="path2763" />
      <path
         d="m 978.69568,70 v -1.601563 h -0.0312 q -0.38281,0.820313 -1.11719,1.3125 -0.72656,0.484375 -1.61719,0.484375 -1.14062,0 -1.80468,-0.640625 -0.66407,-0.640625 -0.66407,-1.617187 0,-2.09375 2.77344,-2.53125 l 2.46094,-0.367188 q 0,-2.578125 -1.9375,-2.578125 -1.32031,0 -2.57031,1.0625 V 62.65625 q 0.44531,-0.351563 1.20312,-0.601563 0.76563,-0.25 1.4375,-0.25 1.23438,0 1.90625,0.765625 0.67969,0.765625 0.67969,2.226563 V 70 Z m -2.20313,-3.984375 q -1.25781,0.179687 -1.76562,0.585937 -0.50781,0.398438 -0.50781,1.304688 0,0.710937 0.46875,1.171875 0.47656,0.460937 1.32031,0.460937 1.15625,0 1.92187,-0.851562 0.76563,-0.859375 0.76563,-2.210938 v -0.78125 z"
         style="fill:#a6a6a6"
         id="path2765" />
      <path
         d="m 985.59412,62.75 q -0.35938,-0.257813 -0.84375,-0.257813 -0.94532,0 -1.58594,0.976563 -0.64063,0.976562 -0.64063,2.773437 V 70 h -0.70312 v -8 h 0.70312 v 1.773437 h 0.0312 q 0.27344,-0.914062 0.86719,-1.421875 0.59375,-0.507812 1.375,-0.507812 0.44531,0 0.79688,0.140625 z"
         style="fill:#a6a6a6"
         id="path2767" />
      <path
         d="m 990.70349,70 h -0.65625 l -3.09375,-8 h 0.80469 l 2.38281,6.367187 q 0.17188,0.460938 0.24219,0.835938 h 0.0312 q 0.10156,-0.492188 0.22656,-0.804688 L 993.10193,62 h 0.78125 z"
         style="fill:#a6a6a6"
         id="path2769" />
      <path
         d="m 995.68005,59.984375 q -0.23437,0 -0.41406,-0.171875 -0.17969,-0.171875 -0.17969,-0.4375 0,-0.257813 0.17969,-0.414063 0.1875,-0.164062 0.41406,-0.164062 0.24219,0 0.42188,0.15625 0.1875,0.15625 0.1875,0.421875 0,0.25 -0.17969,0.429687 -0.17969,0.179688 -0.42969,0.179688 z M 995.32849,70 v -8 h 0.71875 v 8 z"
         style="fill:#a6a6a6"
         id="path2771" />
      <path
         d="m 1003.7894,69.648437 q -0.8906,0.546875 -2.125,0.546875 -1.6328,0 -2.63278,-1.117187 -1,-1.125 -1,-2.9375 0,-1.90625 1.125,-3.117188 1.12498,-1.21875 2.89058,-1.21875 0.9141,0 1.7735,0.375 v 0.8125 q -0.8594,-0.53125 -1.8828,-0.53125 -1.4063,0 -2.28128,1.015625 -0.875,1.007813 -0.875,2.617188 0,1.554687 0.79687,2.5 0.80471,0.945312 2.11721,0.945312 1.2031,0 2.0937,-0.640625 z"
         style="fill:#a6a6a6"
         id="path2773" />
      <path
         d="m 1005.8832,66.03125 q 0,1.648437 0.7578,2.578125 0.7656,0.929687 2.0937,0.929687 1.3438,0 2.625,-0.992187 V 69.3125 q -1.2421,0.882812 -2.7734,0.882812 -1.5469,0 -2.5,-1.109375 -0.9531,-1.109375 -0.9531,-3.132812 0,-1.75 0.9922,-2.945313 1,-1.203125 2.5937,-1.203125 1.4922,0 2.2891,1.046875 0.7969,1.046875 0.7969,2.859375 v 0.320313 z m 5.1719,-0.65625 q -0.047,-1.382813 -0.6641,-2.148438 -0.6172,-0.765625 -1.7031,-0.765625 -1.125,0 -1.8672,0.757813 -0.7344,0.75 -0.9063,2.15625 z"
         style="fill:#a6a6a6"
         id="path2775" />
      <path
         d="m 1070.1891,69.21875 q -1.7344,0.976562 -3.5703,0.976562 -2.2891,0 -3.7032,-1.554687 -1.414,-1.554688 -1.414,-4.078125 0,-2.546875 1.5234,-4.25 1.5235,-1.703125 4.0703,-1.703125 1.4766,0 2.8672,0.59375 v 0.84375 q -1.5234,-0.734375 -2.9765,-0.734375 -2.1172,0 -3.4063,1.445312 -1.2812,1.445313 -1.2812,3.6875 0,2.359375 1.2031,3.703125 1.2109,1.335938 3.2578,1.335938 1.5156,0 2.6562,-0.65625 v -3.695313 h -2.6406 v -0.703125 h 3.4141 z"
         style="fill:#a6a6a6"
         id="path2777" />
      <path
         d="m 1077.4,70 v -1.601563 h -0.031 q -0.3828,0.820313 -1.1172,1.3125 -0.7266,0.484375 -1.6172,0.484375 -1.1406,0 -1.8047,-0.640625 -0.6641,-0.640625 -0.6641,-1.617187 0,-2.09375 2.7735,-2.53125 l 2.4609,-0.367188 q 0,-2.578125 -1.9375,-2.578125 -1.3203,0 -2.5703,1.0625 V 62.65625 q 0.4453,-0.351563 1.2031,-0.601563 0.7657,-0.25 1.4375,-0.25 1.2344,0 1.9063,0.765625 0.6797,0.765625 0.6797,2.226563 V 70 Z m -2.2031,-3.984375 q -1.2578,0.179687 -1.7656,0.585937 -0.5078,0.398438 -0.5078,1.304688 0,0.710937 0.4687,1.171875 0.4766,0.460937 1.3203,0.460937 1.1563,0 1.9219,-0.851562 0.7656,-0.859375 0.7656,-2.210938 v -0.78125 z"
         style="fill:#a6a6a6"
         id="path2779" />
      <path
         d="m 1083.6891,69.890625 q -0.5625,0.265625 -1.0547,0.265625 -1.7734,0 -1.7734,-2.125 v -5.375 h -1.4375 V 62 h 1.4375 v -2.078125 q 0.1718,-0.0625 0.3593,-0.125 0.1875,-0.05469 0.3594,-0.117188 V 62 h 2.1094 v 0.65625 h -2.1094 v 5.28125 q 0,0.828125 0.2578,1.203125 0.2656,0.367187 0.8906,0.367187 0.4454,0 0.961,-0.289062 z"
         style="fill:#a6a6a6"
         id="path2781" />
      <path
         d="m 1090.7125,70 v -4.796875 q 0,-1.421875 -0.5156,-2.078125 -0.5156,-0.664063 -1.6094,-0.664063 -1.0312,0 -1.8125,0.804688 -0.7812,0.804687 -0.7812,2.304687 V 70 h -0.7188 V 58.15625 h 0.7188 v 5.28125 h 0.031 q 0.9453,-1.632813 2.75,-1.632813 1.2969,0 1.9766,0.835938 0.6797,0.835937 0.6797,2.398437 V 70 Z"
         style="fill:#a6a6a6"
         id="path2783" />
      <path
         d="m 1094.0094,66.03125 q 0,1.648437 0.7578,2.578125 0.7656,0.929687 2.0938,0.929687 1.3437,0 2.625,-0.992187 V 69.3125 q -1.2422,0.882812 -2.7735,0.882812 -1.5469,0 -2.5,-1.109375 -0.9531,-1.109375 -0.9531,-3.132812 0,-1.75 0.9922,-2.945313 1,-1.203125 2.5937,-1.203125 1.4922,0 2.2891,1.046875 0.7969,1.046875 0.7969,2.859375 v 0.320313 z m 5.1719,-0.65625 q -0.047,-1.382813 -0.6641,-2.148438 -0.6172,-0.765625 -1.7031,-0.765625 -1.125,0 -1.8672,0.757813 -0.7344,0.75 -0.9063,2.15625 z"
         style="fill:#a6a6a6"
         id="path2785" />
      <path
         d="m 1105.6891,62.75 q -0.3594,-0.257813 -0.8438,-0.257813 -0.9453,0 -1.5859,0.976563 -0.6406,0.976562 -0.6406,2.773437 V 70 h -0.7032 v -8 h 0.7032 v 1.773437 h 0.031 q 0.2735,-0.914062 0.8672,-1.421875 0.5938,-0.507812 1.375,-0.507812 0.4453,0 0.7969,0.140625 z"
         style="fill:#a6a6a6"
         id="path2787" />
      <path
         d="M 1111.5797,70 V 58.15625 h 0.7188 V 70 Z"
         style="fill:#a6a6a6"
         id="path2789" />
      <path
         d="m 1118.0719,70.195312 q -1.75,0 -2.7734,-1.148437 -1.0157,-1.15625 -1.0157,-3 0,-1.992188 1.0625,-3.117188 1.0703,-1.125 2.8125,-1.125 1.711,0 2.7032,1.117188 0.9921,1.117187 0.9921,3.09375 0,1.867187 -1.0156,3.023437 -1.0078,1.15625 -2.7656,1.15625 z m 0.055,-7.734375 q -1.4141,0 -2.2578,0.953125 -0.836,0.953125 -0.836,2.648438 0,1.570312 0.8203,2.523437 0.8204,0.953125 2.2422,0.953125 1.4453,0 2.2266,-0.9375 0.7812,-0.9375 0.7812,-2.601562 0,-1.710938 -0.7812,-2.625 -0.7734,-0.914063 -2.1953,-0.914063 z"
         style="fill:#a6a6a6"
         id="path2791" />
      <path
         d="m 1130.236,69.40625 q 0,2.257812 -0.9844,3.304687 -0.9844,1.046875 -3.0625,1.046875 -1.1563,0 -2.3828,-0.609375 v -0.75 q 1.2656,0.703125 2.3984,0.703125 3.3125,0 3.3125,-3.5 V 68.5625 h -0.031 q -0.9454,1.632812 -2.8829,1.632812 -1.4765,0 -2.414,-1.070312 -0.9297,-1.070313 -0.9297,-2.984375 0,-1.914063 1.0078,-3.125 1.0078,-1.210938 2.6563,-1.210938 1.7656,0 2.5625,1.460938 h 0.031 V 62 h 0.7188 z m -0.7188,-4.335938 q 0,-1.0625 -0.7187,-1.835937 -0.711,-0.773438 -1.8594,-0.773438 -1.3203,0 -2.125,0.992188 -0.8047,0.992187 -0.8047,2.625 0,1.640625 0.7344,2.554687 0.7422,0.90625 1.9531,0.90625 1.2891,0 2.0547,-0.835937 0.7656,-0.835938 0.7656,-2.046875 z"
         style="fill:#a6a6a6"
         id="path2793" />
      <path
         d="M 1132.3844,69.648437 V 68.78125 q 0.4062,0.351562 0.9844,0.554687 0.5781,0.203125 1,0.203125 1.8828,0 1.8828,-1.539062 0,-0.53125 -0.4141,-0.90625 -0.414,-0.375 -1.3437,-0.773438 -1.1485,-0.5 -1.6172,-1.03125 -0.461,-0.539062 -0.461,-1.304687 0,-0.976563 0.7422,-1.578125 0.75,-0.601563 1.8438,-0.601563 1.0312,0 1.7656,0.421875 v 0.8125 q -0.8906,-0.578125 -1.8437,-0.578125 -0.7891,0 -1.2735,0.414063 -0.4844,0.40625 -0.4844,1.0625 0,0.570312 0.3047,0.929687 0.3047,0.351563 1.3438,0.8125 1.25,0.5625 1.7187,1.046875 0.4688,0.476563 0.4688,1.273438 0,0.953125 -0.7188,1.578125 -0.7109,0.617187 -1.9687,0.617187 -1.1563,0 -1.9297,-0.546875 z"
         style="fill:#a6a6a6"
         id="path2795" />
    </g>
    <path
       d="M164.5 474.167 180.944 474.167 180.944 474.833 164.5 474.833ZM179.611 470.5 187.611 474.5 179.611 478.5Z"
       fill="#4472C4"
       id="path2407" />
    <path
       d="M0.0032903-0.333317 16.4478-0.170987 16.4412 0.495647-0.0032903 0.333317ZM15.1507-3.85064 23.1109 0.228136 15.0718 4.14897Z"
       fill="#B4C7E7"
       transform="matrix(1 0 0 -1 348.5 474.728)"
       id="path2409" />
    <path
       d="M0.00155809-0.33333 16.4467-0.25646 16.4436 0.410199-0.00155809 0.33333ZM15.1305-3.92932 23.1117 0.108031 15.0931 4.07059Z"
       fill="#B4C7E7"
       transform="matrix(1 0 0 -1 442.5 474.608)"
       id="path2411" />
    <path
       d="M612.5 474.167 628.945 474.167 628.945 474.833 612.5 474.833ZM627.611 470.5 635.611 474.5 627.611 478.5Z"
       fill="#B4C7E7"
       id="path2413" />
    <path
       d="M1.35756e-06-0.333333 19.1117-0.333255 19.1117 0.333411-1.35756e-06 0.333333ZM17.7784-3.99993 25.7784 0.000104987 17.7784 4.00007Z"
       fill="#B4C7E7"
       transform="matrix(1 0 0 -1 733.5 474.5)"
       id="path2415" />
    <path
       d="M917.5 474.167 933.944 474.167 933.944 474.833 917.5 474.833ZM932.611 470.5 940.611 474.5 932.611 478.5Z"
       fill="#B4C7E7"
       id="path2417" />
    <path
       d="M1132.5 474.167 1148.94 474.167 1148.94 474.833 1132.5 474.833ZM1147.61 470.5 1155.61 474.5 1147.61 478.5Z"
       fill="#B4C7E7"
       id="path2419" />
    <path
       style="color:#000000;fill:#4472c4;fill-rule:evenodd;stroke-miterlimit:8;-inkscape-stroke:none"
       d="m 233.66602,427.5 c 0,3.87829 -2.19037,7.40518 -5.78711,9.98242 -3.59675,2.57724 -8.59179,4.1836 -14.11524,4.1836 H 56.736328 c -5.652537,0 -10.776683,1.63979 -14.503906,4.31054 -3.727223,2.67076 -6.066406,6.39374 -6.066406,10.52344 h 0.667968 c 0,-3.87829 2.19039,-7.40518 5.78711,-9.98242 3.59672,-2.57724 8.591783,-4.1836 14.115234,-4.1836 H 213.76367 c 5.65254,0 10.77666,-1.63979 14.50391,-4.31054 2.99303,-2.14466 5.02209,-4.98284 5.73242,-8.15039 0.71033,3.16755 2.73939,6.00573 5.73242,8.15039 3.72725,2.67075 8.85137,4.31054 14.50391,4.31054 h 157.02734 c 5.52345,0 10.51849,1.60636 14.11524,4.1836 3.59674,2.57724 5.78711,6.10413 5.78711,9.98242 h 0.66796 c 0,-4.1297 -2.33915,-7.85268 -6.0664,-10.52344 -3.72725,-2.67075 -8.85137,-4.31054 -14.50391,-4.31054 H 254.23633 c -5.52345,0 -10.51849,-1.60636 -14.11524,-4.1836 -3.59674,-2.57724 -5.78711,-6.10413 -5.78711,-9.98242 z"
       id="path2421" />
    <path
       style="color:#000000;fill:#b4c7e7;fill-rule:evenodd;stroke-miterlimit:8;-inkscape-stroke:none"
       d="m 594.66602,427.5 c 0,3.87829 -2.19037,7.40518 -5.78711,9.98242 -3.59675,2.57724 -8.59179,4.1836 -14.11524,4.1836 h -89.02734 c -5.65254,0 -10.77666,1.63979 -14.50391,4.31054 -3.72725,2.67076 -6.0664,6.39374 -6.0664,10.52344 h 0.66796 c 0,-3.87829 2.19037,-7.40518 5.78711,-9.98242 3.59675,-2.57724 8.59179,-4.1836 14.11524,-4.1836 h 89.02734 c 5.65254,0 10.77666,-1.63979 14.50391,-4.31054 2.99303,-2.14466 5.02209,-4.98284 5.73242,-8.15039 0.71033,3.16755 2.73939,6.00573 5.73242,8.15039 3.72725,2.67075 8.85137,4.31054 14.50391,4.31054 h 89.02734 c 5.52345,0 10.51849,1.60636 14.11524,4.1836 3.59674,2.57724 5.78711,6.10413 5.78711,9.98242 h 0.66796 c 0,-4.1297 -2.33915,-7.85268 -6.0664,-10.52344 -3.72725,-2.67075 -8.85137,-4.31054 -14.50391,-4.31054 h -89.02734 c -5.52345,0 -10.51849,-1.60636 -14.11524,-4.1836 -3.59674,-2.57724 -5.78711,-6.10413 -5.78711,-9.98242 z"
       id="path2423" />
    <path
       style="color:#000000;fill:#b4c7e7;fill-rule:evenodd;stroke-miterlimit:8;-inkscape-stroke:none"
       d="m 834.66602,427.5 c 0,3.87829 -2.19037,7.40518 -5.78711,9.98242 -3.59675,2.57724 -8.59179,4.1836 -14.11524,4.1836 h -30.02734 c -5.65254,0 -10.77666,1.63979 -14.50391,4.31054 -3.72725,2.67076 -6.0664,6.39374 -6.0664,10.52344 h 0.66796 c 0,-3.87829 2.19037,-7.40518 5.78711,-9.98242 3.59675,-2.57724 8.59179,-4.1836 14.11524,-4.1836 h 30.02734 c 5.65254,0 10.77666,-1.63979 14.50391,-4.31054 2.99303,-2.14466 5.02209,-4.98284 5.73242,-8.15039 0.71033,3.16755 2.73939,6.00573 5.73242,8.15039 3.72725,2.67075 8.85137,4.31054 14.50391,4.31054 h 30.02734 c 5.52345,0 10.51849,1.60636 14.11524,4.1836 3.59674,2.57724 5.78711,6.10413 5.78711,9.98242 h 0.66796 c 0,-4.1297 -2.33915,-7.85268 -6.0664,-10.52344 -3.72725,-2.67075 -8.85137,-4.31054 -14.50391,-4.31054 h -30.02734 c -5.52345,0 -10.51849,-1.60636 -14.11524,-4.1836 -3.59674,-2.57724 -5.78711,-6.10413 -5.78711,-9.98242 z"
       id="path2425" />
    <path
       style="color:#000000;fill:#b4c7e7;fill-rule:evenodd;stroke-miterlimit:8;-inkscape-stroke:none"
       d="m 1095.666,427.5 c 0,3.87829 -2.1899,7.40518 -5.7871,9.98242 -3.5972,2.57724 -8.5937,4.1836 -14.1191,4.1836 H 966.73633 c -5.65254,0 -10.77666,1.63979 -14.50391,4.31054 -3.72725,2.67076 -6.0664,6.39374 -6.0664,10.52344 h 0.66796 c 0,-3.87829 2.19037,-7.40518 5.78711,-9.98242 3.59675,-2.57724 8.59179,-4.1836 14.11524,-4.1836 h 109.02347 c 5.6545,0 10.78,-1.63979 14.5078,-4.31054 2.9934,-2.14466 5.0221,-4.98283 5.7324,-8.15039 0.7103,3.16756 2.739,6.00573 5.7324,8.15039 3.7278,2.67075 8.8533,4.31054 14.5078,4.31054 h 109.0196 c 5.5254,0 10.5219,1.60636 14.1191,4.1836 3.5972,2.57724 5.7871,6.10413 5.7871,9.98242 h 0.668 c 0,-4.1297 -2.3387,-7.85269 -6.0664,-10.52344 -3.7278,-2.67075 -8.8533,-4.31054 -14.5078,-4.31054 h -109.0196 c -5.5254,0 -10.5219,-1.60636 -14.1191,-4.1836 -3.5972,-2.57724 -5.7871,-6.10413 -5.7871,-9.98242 z"
       id="path2427" />
  </g>
</svg>
